<?xml version="1.0" encoding="utf-8"?>
<!-- Generator: Adobe Illustrator 27.0.0, SVG Export Plug-In . SVG Version: 6.00 Build 0)  -->
<svg version="1.1" id="Layer_1" xmlns="http://www.w3.org/2000/svg" xmlns:xlink="http://www.w3.org/1999/xlink" x="0px" y="0px"
	 viewBox="0 0 1380.5 644.7" style="enable-background:new 0 0 1380.5 644.7;" xml:space="preserve">
<style type="text/css">
	.st0{stroke:#000000;stroke-width:19;stroke-miterlimit:10;}
	.st1{stroke:#000000;stroke-miterlimit:10;}
	.st2{font-family:'Arial-Black';}
	.st3{font-size:70px;}
</style>
<g>
	<g>
		<path class="st0" d="M98.5,487.5l-19,56.3l0,0c-45.2,0-77-44.4-62.5-87.2l117.5-346.1l0,0c70.5,0,133.4,44.4,157,110.9
			l114.2,322.4l0,0c-59.1,0-111.7-37.2-131.5-92.8l-2.6-7.3H159.5C131.9,443.7,107.4,461.3,98.5,487.5z M251.5,366.9
			c-30.8-91.4-50.4-149.9-60.8-188.8H190c-8.2,32.6-22.7,80-40.2,135.4c-8.3,26.4,11.4,53.4,39.2,53.4H251.5z"/>
	</g>
	<g>
		<path class="st1" d="M1207.3,294.1L1207.3,294.1c17.3,0,33.4,9.1,42.4,24c16.3,27,24.5,55,24.5,84.2c0,44.1-16.2,81.2-48.5,111.2
			s-72.1,45-119.3,45c-61.3,0-113.4-23.3-156.2-69.8S886,385.5,886,318.7c0-67,21.8-122.8,65.3-167.4c43.6-44.5,98-66.8,163.3-66.8
			c0.2,0,0.4,0,0.7,0c40.7,0.2,73.4,33.5,73.4,74.2v2.3c0,31.5-25.8,56.7-57.3,56.5c-0.2,0-0.4,0-0.6,0c-31.5,0-57.3,9.8-77.2,29.4
			c-20,19.6-29.9,45.1-29.9,76.4c0,32,9.3,57.3,27.8,76.1c18.5,18.7,43.6,28.1,75.1,28.1c20.1,0,30.1-5.8,30.1-17.5
			c0-8.8-6.6-13.2-19.8-13.2h-32.1l0,0C1104.7,340,1150.6,294.1,1207.3,294.1z"/>
	</g>
	<g>
		<path class="st1" d="M761.3,294.1L761.3,294.1c17.3,0,33.4,9.1,42.4,24c16.3,27,24.5,55,24.5,84.2c0,44.1-16.2,81.2-48.5,111.2
			s-72.1,45-119.3,45c-61.3,0-113.4-23.3-156.2-69.8S440,385.5,440,318.7c0-67,21.8-122.8,65.3-167.4c43.6-44.5,98-66.8,163.3-66.8
			c0.2,0,0.4,0,0.7,0c40.7,0.2,73.4,33.5,73.4,74.2v2.3c0,31.5-25.8,56.7-57.3,56.5c-0.2,0-0.4,0-0.6,0c-31.5,0-57.3,9.8-77.2,29.4
			c-20,19.6-29.9,45.1-29.9,76.4c0,32,9.3,57.3,27.8,76.1c18.5,18.7,43.6,28.1,75.1,28.1c20.1,0,30.1-5.8,30.1-17.5
			c0-8.8-6.6-13.2-19.8-13.2h-32.1l0,0C658.7,340,704.7,294.1,761.3,294.1z"/>
		<path class="st1" d="M461.8,425c0,0-36.3,104-9.3,149.4c0,0,54.5,112.9,253.9-136C721.8,418.2,849.9,225.3,835,75.8
			c0,0-3.7-57.4-61.6-44.5c-22.9,8.1-63.6,28.8-85.9,55.4c0,0,45.5-27.3,64.9-29.2c20.2-2,41.8-4.5,48.9,44.7
			c0,0,15.1,59.4-32.4,171.3c0,0-86.3,228.8-229.3,291.6c-14.6,1.8-81,22.3-60.3-108.5L461.8,425z"/>
	</g>
	<text transform="matrix(1 0 0 1 1255.6428 557.3845)" class="st1 st2 st3">TM</text>
</g>
</svg>
