<?xml version="1.0" encoding="UTF-8"?><svg id="Layer_1" xmlns="http://www.w3.org/2000/svg" viewBox="0 0 4431.48 1305.25"><defs><style>.cls-1{fill:#fff;}.cls-2{fill:#081c2b;}</style></defs><g><path class="cls-2" d="M757.19,823.07c-4.69,3.91-13.38,9.18-26.07,15.82-12.7,6.65-28.22,12.5-46.58,17.58-18.36,5.07-38.67,7.42-60.93,7.03-33.98-.79-64.35-6.93-91.1-18.45-26.76-11.52-49.41-27.24-67.96-47.16-18.56-19.92-32.72-42.77-42.47-68.54-9.77-25.78-14.65-53.31-14.65-82.61,0-32.81,4.98-62.88,14.94-90.22,9.96-27.33,24.21-50.97,42.77-70.89,18.55-19.92,40.72-35.34,66.5-46.28,25.78-10.93,54.28-16.4,85.54-16.4,28.9,0,54.48,3.91,76.75,11.72,22.26,7.82,40.42,16.21,54.49,25.19l-33.39,80.26c-9.77-7.42-22.76-15.13-38.96-23.14-16.21-8-34.86-12.01-55.95-12.01-16.4,0-32.13,3.42-47.16,10.25-15.04,6.84-28.32,16.5-39.84,29-11.53,12.5-20.61,27.05-27.24,43.65-6.65,16.6-9.96,34.67-9.96,54.19,0,20.71,3.02,39.65,9.08,56.83,6.05,17.19,14.74,31.93,26.07,44.23,11.32,12.3,24.9,21.78,40.72,28.41,15.82,6.65,33.69,9.96,53.61,9.96,23.04,0,42.77-3.71,59.17-11.13,16.4-7.41,28.9-15.23,37.49-23.43l35.15,76.16Z"/><path class="cls-2" d="M628.22,873.53c-1.58,0-3.18-.01-4.78-.04-35.2-.81-67.1-7.3-94.88-19.27-27.91-12.01-51.9-28.68-71.32-49.53-19.36-20.78-34.34-44.95-44.51-71.82-10.15-26.78-15.29-55.77-15.29-86.15,0-33.82,5.23-65.33,15.54-93.64,10.38-28.49,25.47-53.48,44.85-74.28,19.41-20.85,42.93-37.22,69.91-48.67,26.92-11.41,57.01-17.2,89.44-17.2,29.89,0,56.82,4.13,80.06,12.28,22.9,8.04,41.92,16.85,56.56,26.2l7.08,4.52-41.59,99.96-10.31-7.83c-9.22-7-21.79-14.45-37.34-22.14-14.75-7.28-32.09-10.97-51.52-10.97-14.88,0-29.36,3.15-43.03,9.36-13.75,6.25-26.07,15.23-36.62,26.67-10.65,11.55-19.16,25.2-25.31,40.58-6.13,15.33-9.24,32.31-9.24,50.48,0,19.49,2.86,37.49,8.51,53.5,5.57,15.82,13.64,29.54,24,40.78,10.3,11.19,22.82,19.92,37.23,25.97,14.5,6.09,31.24,9.18,49.74,9.18,21.51,0,40.03-3.45,55.05-10.24,15.28-6.91,26.96-14.16,34.71-21.56l10.12-9.66,44.23,95.82-5.89,4.91c-5.27,4.4-14.38,9.96-27.84,17-13.26,6.94-29.6,13.12-48.55,18.35-17.87,4.94-37.7,7.43-58.99,7.43Zm-11.05-440.61c-29.74,0-57.2,5.25-81.63,15.61-24.37,10.34-45.59,25.11-63.08,43.89-17.54,18.83-31.23,41.54-40.69,67.5-9.51,26.11-14.33,55.32-14.33,86.8,0,27.95,4.71,54.55,14,79.06,9.25,24.44,22.86,46.39,40.44,65.27,17.52,18.82,39.25,33.88,64.6,44.79,25.42,10.95,54.82,16.89,87.38,17.64,21.13,.36,40.68-1.88,58.04-6.67,17.58-4.86,32.59-10.51,44.6-16.79,8.48-4.43,14.24-7.79,18.16-10.29l-26.28-56.93c-8.12,5.81-18.05,11.38-29.7,16.64-17.62,7.97-38.92,12.02-63.29,12.02-21.18,0-40.52-3.61-57.48-10.74-17.08-7.16-31.95-17.55-44.2-30.86-12.2-13.25-21.67-29.29-28.15-47.68-6.4-18.15-9.65-38.39-9.65-60.15s3.59-40.21,10.67-57.91c7.06-17.65,16.87-33.36,29.17-46.71,12.37-13.42,26.85-23.96,43.05-31.33,16.29-7.4,33.54-11.15,51.3-11.15,22.52,0,42.84,4.39,60.37,13.04,11.51,5.69,21.58,11.32,30.07,16.81l25.31-60.84c-12.27-6.96-27.45-13.63-45.25-19.88-21.1-7.4-45.81-11.15-73.43-11.15Z"/></g><g><path class="cls-2" d="M1283.42,602.78l7.62,70.3-1.76-10.55c7.42-15.23,17.58-28.21,30.46-38.96,12.89-10.74,25.68-19.04,38.37-24.9,12.69-5.86,22.35-8.79,29-8.79l-4.1,82.02c-19.14-2.34-35.54,.79-49.21,9.37-13.68,8.59-24.22,19.92-31.64,33.98-7.42,14.06-11.13,28.51-11.13,43.35v100.18h-81.43v-256.02h73.82Z"/><path class="cls-2" d="M1301.04,868.8h-101.43v-276.02h92.79l4.31,39.81c4.99-6.04,10.54-11.61,16.63-16.69,13.52-11.26,27.17-20.11,40.59-26.3,14.15-6.53,25-9.71,33.19-9.71h10.51l-5.16,103.25-10.67-1.31c-16.94-2.07-30.9,.52-42.68,7.92-12.11,7.61-21.56,17.76-28.11,30.18-6.62,12.54-9.98,25.55-9.98,38.69v110.18Zm-81.43-20h61.43v-90.18c0-16.42,4.13-32.58,12.29-48.02,8.21-15.56,20.04-28.27,35.16-37.78,12.95-8.14,28.06-12.04,45.06-11.63l2.96-59.12c-3.66,1.18-8.32,2.98-14.19,5.69-11.83,5.46-24,13.37-36.17,23.5-10.75,8.96-19.51,19.77-26.1,32.16l.93,8.59-19.81,2.72-2.28-13.7,.64-1.32-5.08-46.94h-54.84v236.02Z"/></g><g><path class="cls-2" d="M1564.04,865.84c-31.25,0-57.71-5.86-79.38-17.58-21.68-11.72-38.18-27.92-49.5-48.63-11.33-20.7-16.99-44.53-16.99-71.47s6.64-49.01,19.92-69.72c13.27-20.7,31.05-37.2,53.31-49.5,22.26-12.3,47.06-18.46,74.4-18.46,36.71,0,66.88,10.65,90.52,31.93,23.63,21.29,38.96,52.05,45.99,92.27l-199.19,63.27-18.16-44.53,144.12-48.63-16.99,7.62c-3.13-10.15-8.7-19.04-16.7-26.66-8.01-7.62-20.02-11.42-36.03-11.42-12.11,0-22.76,2.84-31.93,8.5-9.18,5.67-16.21,13.68-21.09,24.02-4.89,10.35-7.32,22.56-7.32,36.62,0,16.02,2.93,29.39,8.79,40.13,5.86,10.75,13.86,18.85,24.02,24.31,10.15,5.47,21.48,8.2,33.98,8.2,8.98,0,17.67-1.56,26.07-4.69,8.39-3.12,16.7-7.22,24.9-12.3l36.32,60.93c-13.68,7.82-28.41,14.06-44.23,18.75-15.82,4.69-30.76,7.03-44.82,7.03Z"/><path class="cls-2" d="M1564.04,875.83c-32.78,0-61.09-6.32-84.14-18.78-23.31-12.6-41.32-30.31-53.52-52.62-12.09-22.07-18.22-47.74-18.22-76.27s7.23-52.87,21.5-75.12c14.12-22.01,33.26-39.8,56.89-52.86,23.66-13.07,50.32-19.7,79.24-19.7,39.08,0,71.79,11.61,97.21,34.5,25.22,22.73,41.76,55.7,49.15,97.98l1.5,8.61-178.57,56.72c.48,.28,.97,.55,1.46,.82,8.75,4.72,18.31,7.01,29.24,7.01,7.75,0,15.35-1.37,22.58-4.06,7.75-2.88,15.53-6.73,23.12-11.43l8.65-5.36,46.75,78.41-8.84,5.05c-14.27,8.15-29.86,14.77-46.35,19.65-16.67,4.94-32.7,7.44-47.66,7.44Zm1.76-275.35c-25.5,0-48.91,5.79-69.57,17.21-20.7,11.44-37.43,26.96-49.73,46.15-12.17,18.97-18.34,40.61-18.34,64.32,0,25.14,5.3,47.57,15.76,66.67,10.33,18.88,25.63,33.9,45.49,44.63,20.1,10.86,45.21,16.37,74.63,16.37,13.03,0,27.16-2.23,41.98-6.62,11.61-3.44,22.71-7.81,33.12-13.03l-25.92-43.48c-5.91,3.16-11.89,5.87-17.87,8.09-9.46,3.53-19.41,5.31-29.56,5.31-14.13,0-27.16-3.16-38.73-9.4-5.58-3-10.62-6.7-15.11-11.08l-14.62,4.65-25.67-62.93,17.35-5.85c.23-14.69,3.01-27.78,8.27-38.92,5.7-12.08,14.07-21.59,24.88-28.26,10.74-6.63,23.25-9.99,37.18-9.99,18.59,0,33.03,4.77,42.92,14.18,6.18,5.88,11.14,12.5,14.84,19.77l8.76-2.96,7.29,18.6-27.31,12.24-.83-2.7-95.33,32.16c1.06,8.97,3.37,16.73,6.88,23.18,.69,1.27,1.42,2.5,2.18,3.68l172.04-54.65c-7.2-33.64-21.03-59.86-41.17-78.01-21.63-19.48-49.84-29.36-83.82-29.36Zm-6.44,63.86c-10.31,0-19.04,2.29-26.68,7.01-7.56,4.67-13.22,11.14-17.3,19.78-3.2,6.77-5.2,14.65-5.99,23.51l88.5-29.86c-2.47-4.23-5.59-8.13-9.41-11.76-6.05-5.75-15.85-8.67-29.14-8.67Z"/></g><path class="cls-2" d="M1786.08,442.85h256.61v27.54h-227.9v165.21h205.05v27.54h-205.05v168.14h236.1v27.54h-264.81V442.85Z"/><path class="cls-2" d="M2315.11,858.8h-32.81l-171.66-229.07h34.57l169.9,229.07Zm-101.94-98.42l-70.3,98.42h-29.29l84.36-116.59,15.23,18.16Zm.58-31.64l67.96-99.01h28.71l-84.95,119.51-11.72-20.5Z"/><path class="cls-2" d="M2510.2,863.49c-21.88,0-42.38-5.76-61.51-17.28-19.14-11.52-33.2-26.46-42.18-44.82l4.69-9.96v177.52h-27.54v-340.97h24.61l2.93,74.99-5.27-16.99c10.15-18.35,24.99-33.49,44.53-45.4,19.53-11.91,40.81-17.87,63.86-17.87s41.6,5.27,59.17,15.82c17.58,10.55,31.54,24.9,41.89,43.06,10.34,18.16,15.53,38.96,15.53,62.39s-5.37,43.65-16.11,61.81c-10.75,18.16-25.19,32.32-43.35,42.47-18.16,10.16-38.58,15.23-61.22,15.23Zm-4.69-22.85c17.96,0,34.27-4.29,48.92-12.89,14.65-8.59,26.36-20.21,35.15-34.86,8.79-14.65,13.18-30.95,13.18-48.92s-4.3-34.86-12.89-49.5c-8.6-14.65-20.02-26.26-34.27-34.86-14.26-8.59-30.37-12.89-48.33-12.89s-32.81,3.91-46.87,11.72c-14.06,7.82-25.39,18.36-33.98,31.64-8.6,13.28-13.68,28.32-15.23,45.11v18.75c1.17,16.02,6.15,30.67,14.94,43.94,8.79,13.28,20.11,23.73,33.98,31.34,13.86,7.62,29,11.42,45.4,11.42Z"/><path class="cls-2" d="M2690.64,742.8c0-22.26,5.36-42.57,16.11-60.93,10.74-18.35,25.38-32.9,43.94-43.65,18.55-10.74,39.34-16.11,62.39-16.11s44.32,5.37,62.69,16.11c18.35,10.75,32.81,25.29,43.35,43.65,10.55,18.36,15.82,38.67,15.82,60.93s-5.27,42.58-15.82,60.93c-10.54,18.36-25.1,32.91-43.65,43.65-18.55,10.75-39.54,16.11-62.98,16.11s-43.75-5.17-62.1-15.52c-18.36-10.34-32.91-24.61-43.65-42.77-10.75-18.16-16.11-38.96-16.11-62.39Zm27.54,.59c0,17.97,4.19,34.27,12.6,48.92,8.39,14.65,19.72,26.27,33.98,34.86,14.25,8.6,30.17,12.89,47.75,12.89s33.49-4.29,47.75-12.89c14.25-8.59,25.58-20.21,33.98-34.86,8.39-14.65,12.6-30.95,12.6-48.92s-4.2-34.27-12.6-48.92c-8.4-14.65-19.73-26.36-33.98-35.15-14.26-8.79-30.17-13.18-47.75-13.18s-34.08,4.6-48.33,13.77c-14.26,9.18-25.49,21.19-33.69,36.03-8.2,14.85-12.3,30.67-12.3,47.45Z"/><path class="cls-2" d="M3040.98,629.73l2.93,72.06-3.51-14.06c6.64-19.92,19.23-35.64,37.79-47.16,18.55-11.52,39.15-17.28,61.81-17.28,21.48,0,38.86,6.35,52.14,19.04,13.27,12.7,20.11,29.2,20.5,49.5v166.97h-28.12v-159.35c-.39-14.84-5.08-27.14-14.06-36.91-8.99-9.76-22.07-14.84-39.25-15.23-15.23,0-29.49,3.72-42.77,11.13-13.28,7.42-23.93,17.78-31.93,31.05-8.01,13.28-12.01,28.71-12.01,46.28v123.03h-27.54v-229.07h24.02Z"/><path class="cls-2" d="M3416.51,863.49c-23.83,0-44.92-5.27-63.27-15.82-18.36-10.55-32.72-24.9-43.06-43.06-10.35-18.16-15.53-38.57-15.53-61.22s5.46-42.57,16.4-60.93c10.93-18.35,25.68-33,44.23-43.94,18.55-10.93,39.15-16.4,61.81-16.4,27.33,0,50.28,8.01,68.84,24.02,18.55,16.02,31.93,36.91,40.13,62.69l-200.36,77.33-8.2-19.92,183.37-71.47-5.86,8.2c-6.65-15.62-16.7-29.09-30.17-40.42-13.47-11.32-29.98-16.99-49.5-16.99-17.58,0-33.39,4.3-47.45,12.89-14.06,8.6-25.29,20.12-33.69,34.57-8.4,14.45-12.6,30.86-12.6,49.21,0,17.19,4,33.2,12.01,48.04,8,14.85,19.23,26.76,33.69,35.74,14.45,8.99,31.05,13.47,49.8,13.47,12.5,0,24.5-2.34,36.03-7.03,11.52-4.69,21.77-10.74,30.76-18.16l14.06,19.92c-10.94,8.6-23.54,15.63-37.79,21.09-14.26,5.47-28.81,8.2-43.65,8.2Z"/><path class="cls-2" d="M3626.25,629.73l2.93,72.06-3.51-14.06c6.64-19.92,19.23-35.64,37.79-47.16,18.55-11.52,39.15-17.28,61.81-17.28,21.48,0,38.86,6.35,52.14,19.04,13.27,12.7,20.11,29.2,20.5,49.5v166.97h-28.12v-159.35c-.39-14.84-5.08-27.14-14.06-36.91-8.99-9.76-22.07-14.84-39.25-15.23-15.23,0-29.49,3.72-42.77,11.13-13.28,7.42-23.93,17.78-31.93,31.05-8.01,13.28-12.01,28.71-12.01,46.28v123.03h-27.54v-229.07h24.02Z"/><path class="cls-2" d="M3925.03,528.97h28.12v103.7h70.89v22.26h-70.89v203.88h-28.12v-203.88h-48.63v-22.26h48.63v-103.7Z"/><g><g><g><g><path class="cls-2" d="M993.52,632.63c25.89,4.69,50.67,20.47,62.76,44.42,10.38,19.96,9.8,44.71-.44,64.66-12.34,24.93-38.27,41.62-65.54,44.7-42.56,5.49-86.8-22.79-94.15-65.8-9.6-55.94,44.3-98.33,97.37-87.96h0Zm-.33,1.6c-40.55-9.34-85.62,14.37-95.63,55.86-10.54,41.97,20.69,81.4,62.15,87.35,49.43,7.85,97.24-30.82,89.9-82.42-3.87-29.67-26.94-54.61-56.42-60.79h0Z"/><path class="cls-2" d="M1000.56,601.04c28.03,6.59,53.61,24.02,68.73,48.63,22.92,36.39,19.47,82.84-7.97,115.58-25.01,32.34-67.87,48.58-108.22,41.68-78.07-12.01-120-99.72-70.79-164.66,27.12-35.14,75.27-51.85,118.25-41.23h0Zm-4.6,22.7c-34.36-5.71-72.19,6.16-93.91,33.99-41.93,52.9-10.04,123.9,53.07,139.28,36.98,9.46,80.14-2.9,103.93-33.54,15.39-20.48,20.73-47.82,14.43-72.46-9.01-35.84-41.74-61.94-77.53-67.26h0Z"/><ellipse class="cls-2" cx="976.18" cy="707.18" rx="57.51" ry="53.66"/></g><path class="cls-2" d="M1052.84,605.62c46.61,27.76,74.2,81.51,64.78,132.09-12.3,71.2-90.2,118.05-166.07,101.75-74.56-15.14-123.95-84.98-108.84-153.73,18.59-88.33,128.15-130.08,210.13-80.11h0Zm-.79,1.12c-71.18-45.34-169.88-17.95-201.23,55.4-31.53,72.41,18.79,155.65,102.34,169.42,81.68,13.9,154.76-43.61,156.56-119.63,1.5-40.88-20.46-82.12-57.67-105.19h0Z"/></g><path class="cls-2" d="M1156.09,701.39c-1.65,45.79-23.18,89.14-57.53,119-98.56,96.59-275.97,53.63-312.07-82.16-16.61-61.34,4.64-129.54,50.63-172.93,19.61-16.2,42.09-28.3,65.72-35.95,118.42-39.37,257.17,41.29,253.24,172.04h0Zm-10.73,0c-5.52-111.99-128.75-175.38-227.33-131.41-17.89,7.86-34.09,18.98-47.41,32.47-7.26,6.1-14.12,12.71-20.13,20.06-18.38,22.18-29.43,49.8-30.8,78.88-4.54,85.86,72.95,153.09,155.86,155.67,44.29,2.03,89.81-12.71,123.42-42.35,6.76-6.74,13.05-14.07,18.56-21.86,19.1-26.63,29.27-58.65,27.83-91.46h0Z"/></g><path class="cls-1" d="M989.6,724.23c-.71-.83-2.1-2.45-4.15-4.87-2.05-2.41-4.06-4.82-6.02-7.24-1.96-2.41-3.3-4.03-4.01-4.87-.71,.83-2.05,2.46-4.01,4.87-1.96,2.41-3.88,4.83-5.75,7.24-1.87,2.41-3.17,4.04-3.88,4.87h-18.99c5.52-7.65,11.01-15.3,16.45-22.96,5.44-7.65,10.83-15.22,16.18-22.71,5.52,7.49,11.01,15.06,16.45,22.71,5.44,7.65,10.92,15.31,16.45,22.96h-18.72Z"/></g></svg>