<?xml version="1.0" encoding="utf-8"?>
<!-- Generator: Adobe Illustrator 27.0.0, SVG Export Plug-In . SVG Version: 6.00 Build 0)  -->
<svg version="1.1" id="Layer_1" xmlns="http://www.w3.org/2000/svg" xmlns:xlink="http://www.w3.org/1999/xlink" x="0px" y="0px"
	 viewBox="0 0 433.4 75.1" style="enable-background:new 0 0 433.4 75.1;" xml:space="preserve">
<style type="text/css">
	.st0{clip-path:url(#SVGID_00000165203991695188004310000001131265030471916180_);}
</style>
<g>
	<defs>
		<rect id="SVGID_1_" width="433.4" height="75.1"/>
	</defs>
	<clipPath id="SVGID_00000031890151735861653990000005741695442213598870_">
		<use xlink:href="#SVGID_1_"  style="overflow:visible;"/>
	</clipPath>
	<g style="clip-path:url(#SVGID_00000031890151735861653990000005741695442213598870_);">
		<path d="M49.7,75.4c-2.8-5.9-4.3-12.1-3.3-18.6c1.1-7.7,5.6-13.1,12.1-16.9c3.4-1.9,6.9-3.6,10.1-5.7c1.3-0.8,2.6-1.7,3.8-2.7
			c1.6-1.3,3-2.8,3.8-4.7c0.4,0,0.4,0.2,0.5,0.4c2.1,8.6,2.6,17.2-0.3,25.8c-3,9.2-9.5,14.9-18.5,18c-0.4,0.1-0.8,0.2-1.1,0.4
			c-1.7,0.5-2.1,0.2-2.1-1.5c0-2.5,0.6-5,1.4-7.4c0.5-1.7,1.2-3.3,2-4.9c0.8-1.6,1.8-3,3-4.4c-1.8,0.8-3.2,2.1-4.4,3.6
			c-3,3.7-4.6,8-5.7,12.6c-0.5,2-0.9,4.1-1,6.1C49.8,75.4,49.8,75.4,49.7,75.4z"/>
		<path d="M40.8,0.2c0.2,0.1,0.3,0.3,0.5,0.4c1.4,1,2,2.3,1.6,3.7c-0.5,1.5-1.8,2.4-3.4,2.4c-1.3,0-2.8-1.1-3.2-2.3
			c-0.4-1.5,0.2-2.9,1.7-3.8c0.1-0.1,0.3-0.2,0.4-0.3C39.2,0.2,40,0.2,40.8,0.2z"/>
		<path d="M49.9,0.2c0.6,0.3,1.2,0.6,1.7,1.2c1.1,1.4,0.9,3.3-0.4,4.4c-1.6,1.3-3.8,1-5-0.5c-1.1-1.4-0.8-3.4,0.7-4.5
			c0.3-0.2,0.6-0.4,0.9-0.6C48.5,0.2,49.2,0.2,49.9,0.2z"/>
		<path d="M24.6,46c4.2,4.3,6.5,9.3,7.7,14.8c0.2,0.9,0.1,1.7,0.1,2.6c0,0.8-0.3,1.2-1.2,0.9c-5.4-1.4-10.4-3.8-14.5-7.6
			C11,51.4,8.1,44.7,7,37.1c-0.8-5.2-0.8-10.4,0-15.6c0-0.3,0-0.6,0.3-0.8c0.1,0,0.2,0,0.2,0c2.3,3.8,6,5.7,9.8,7.6
			c3.3,1.6,6.7,2.9,9.9,4.6c7.4,3.7,11.9,9.6,13.1,17.9c0.8,5.5-0.1,10.9-1.9,16.2c0,0.1-0.2,0.3-0.3,0.5c-0.4-0.4-0.4-0.9-0.4-1.4
			c-1.1-5.9-3-11.3-7-16C29.2,48.4,26.7,46.6,24.6,46z"/>
		<path d="M323.8,34.2c-0.6,2.9-1.1,5.8-1.6,8.7c-1,5.1-1.9,10.2-2.9,15.3c-0.2,0.8-0.5,1.2-1.4,1.1c-1.5,0-3,0-4.4,0
			c-1.1,0-1.3-0.4-1.1-1.4c1.4-7,2.7-14.1,4-21.1c0.7-4,1.5-7.9,2.2-11.9c0.2-0.9,0.6-1.3,1.5-1.3c1.6,0.1,3.3,0.1,4.9,0
			c1.2-0.1,1.7,0.4,2.1,1.5c2.8,7.4,5.7,14.7,8.6,22c0.2,0.5,0.4,0.9,0.6,1.4c0.5-0.1,0.4-0.4,0.4-0.6c1.4-7.6,2.9-15.2,4.3-22.7
			c0.2-1.1,0.6-1.6,1.8-1.5c1.4,0.1,2.7,0.1,4.1,0c1.1,0,1.3,0.3,1.1,1.4c-1.5,7.5-2.9,15.1-4.3,22.6c-0.6,3.3-1.3,6.7-1.8,10
			c-0.2,1.3-0.8,1.7-2.1,1.6c-1.4-0.1-2.7-0.1-4.1,0c-1.3,0.1-1.9-0.3-2.4-1.6c-2.9-7.5-5.9-15-8.8-22.4
			C324.3,35,324.2,34.6,323.8,34.2z"/>
		<path d="M304.8,59.3c-0.8,0-1.5-0.1-2.3,0c-1,0.1-1.4-0.4-1.6-1.3c-0.5-2.2-1.1-4.4-1.5-6.7c-0.2-0.8-0.5-1.2-1.4-1.2
			c-3.4,0-6.9,0-10.3,0c-0.8,0-1.3,0.3-1.7,1c-1.3,2.2-2.8,4.4-4.1,6.6c-0.6,1.1-1.4,1.6-2.7,1.5c-1.5-0.1-3,0-4.4,0
			c-0.4,0-0.9,0.2-1.1-0.3c-0.2-0.4,0.2-0.7,0.4-1c2.6-4.3,5.3-8.7,7.9-13c4.1-6.7,8.1-13.3,12.2-20c0.6-1,1.3-1.4,2.5-1.4
			c3.8,0.1,3.8,0,4.7,3.7c2.4,10.1,4.8,20.1,7.2,30.2c0.4,1.7,0.4,1.7-1.4,1.7C306.3,59.3,305.6,59.3,304.8,59.3z M296,33.7
			c-0.1,0-0.2,0-0.3,0c-1.7,3-3.3,6.1-5,9.1c-0.3,0.6,0,0.8,0.5,0.8c1.8,0,3.6,0,5.4,0c0.8,0,0.9-0.4,0.8-1.1
			c-0.2-0.9-0.3-1.7-0.4-2.6C296.7,37.9,296.3,35.8,296,33.7z"/>
		<path d="M382.5,34.1c-0.2,0-0.4,0-0.6,0c-1.8,0.2-3.2-0.3-4.6-1.7c-2.6-2.7-6-3.2-9.6-2.4c-5.8,1.3-10.5,6.4-11.5,12.2
			c-1.2,7.3,5.4,13,12.8,10.9c2.1-0.6,4-1.6,5.7-3c0.6-0.5,1.2-0.7,2-0.7c1.8,0,3.5,0,5.3,0c0.4,0,0.9-0.2,1.1,0.3
			c0.2,0.4-0.2,0.7-0.4,1.1c-3.9,5.3-9.3,8.5-15.8,9.3c-7.1,0.9-13-2.1-16-8c-2.4-4.6-2.2-9.4-0.3-14.2C354,29.1,363.1,22.7,372,23
			c6.1,0.2,11.1,2.7,13.8,8.5c0.2,0.3,0.3,0.7,0.4,1c0.4,1.3,0.3,1.5-1,1.5C384.3,34.1,383.4,34.1,382.5,34.1z"/>
		<path d="M395.6,59.3c-2.6,0-5.3,0-7.9,0c-1.9,0-1.9,0-1.5-1.9c1.7-9,3.4-18.1,5.1-27.1c0.3-1.8,0.7-3.6,1-5.4
			c0.1-0.9,0.5-1.2,1.4-1.2c5.7,0,11.4,0,17,0c1,0,1.3,0.3,1.1,1.3c-0.3,1.4-0.6,2.7-0.8,4.1c-0.1,0.9-0.6,1.2-1.4,1.2
			c-3.4,0-6.7,0-10.1,0c-1,0-1.4,0.3-1.6,1.3c-0.3,1.8-0.6,3.6-1,5.3c-0.2,1,0.2,1.3,1.1,1.3c3.1,0,6.2,0,9.4,0
			c1.1,0,1.4,0.4,1.2,1.4c-0.3,1.3-0.5,2.6-0.7,3.9c-0.1,1-0.6,1.3-1.6,1.3c-3.2-0.1-6.3,0-9.5,0c-0.9,0-1.4,0.3-1.5,1.2
			c-0.3,1.9-0.7,3.7-1,5.5c-0.2,1,0.1,1.3,1.1,1.3c3.3-0.1,6.6,0,10,0c1,0,1.3,0.4,1.1,1.3c-0.3,1.4-0.6,2.7-0.8,4.1
			c-0.1,1-0.6,1.2-1.5,1.2C401.2,59.3,398.4,59.3,395.6,59.3z"/>
		<path d="M86.6,41.5c0-5.4,0-10.9,0-16.3c0-1.1,0.3-1.6,1.5-1.5c0.8,0.1,1.7,0.1,2.5,0c1-0.1,1.4,0.3,1.4,1.4c0,4,0,8.1,0,12.1
			c0,1.7,0,1.7,1.7,1.7c3.8,0,7.5,0,11.3,0c1.6,0,1.6,0,1.6-1.7c0-4,0-7.9,0-11.9c0-1.6,0-1.6,1.6-1.6c0.8,0,1.7,0.1,2.5,0
			c1.1-0.1,1.4,0.4,1.4,1.4c0,4.6,0,9.1,0,13.7c0,6.3,0,12.6,0,18.8c0,1.6-0.1,1.7-1.7,1.7c-0.8,0-1.7,0-2.5,0
			c-1,0.1-1.3-0.4-1.3-1.3c0-4.1,0-8.2,0-12.2c0-1.8,0-1.8-1.8-1.8c-3.7,0-7.4,0-11,0c-1.8,0-1.8,0-1.8,1.8c0,4,0,8.1,0,12.1
			c0,1.1-0.4,1.5-1.5,1.5c-0.9-0.1-1.8-0.1-2.6,0c-1,0.1-1.3-0.4-1.3-1.3c0-4.7,0-9.4,0-14C86.6,43.1,86.6,42.3,86.6,41.5z"/>
		<path d="M216.4,41.4c0-5.4,0-10.8,0-16.2c0-1.1,0.3-1.6,1.5-1.5c0.9,0.1,1.8,0.1,2.6,0c0.9-0.1,1.3,0.3,1.3,1.3
			c0,3.8,0,7.6,0,11.4c0,2.8-0.3,2.5,2.5,2.5c3.5,0,7,0,10.4,0c1.6,0,1.6,0,1.6-1.7c0-3.9,0-7.8,0-11.8c0-1.7,0-1.7,1.8-1.7
			c0.8,0,1.6,0.1,2.4,0c1.1-0.1,1.4,0.4,1.4,1.4c0,4.9,0,9.8,0,14.6c0,6,0,11.9,0,17.9c0,1.6-0.1,1.7-1.7,1.7c-0.8,0-1.7,0-2.5,0
			c-1,0.1-1.3-0.4-1.3-1.3c0-4.1,0-8.2,0-12.2c0-1.8,0-1.8-1.8-1.8c-3.7,0-7.4,0-11,0c-1.7,0-1.8,0-1.8,1.7c0,4,0,8.1,0,12.1
			c0,1.2-0.4,1.7-1.6,1.6c-0.8-0.1-1.7-0.1-2.5,0c-1,0.1-1.3-0.4-1.3-1.3c0-4.7,0-9.4,0-14.2C216.4,43,216.4,42.2,216.4,41.4z"/>
		<path d="M264.2,49.9c1.5-2.8,3-5.5,4.5-8.3c3-5.5,6-11,9-16.5c0.6-1.1,1.2-1.5,2.4-1.4c1.3,0.1,2.6,0,4,0c1.6,0,1.6,0.1,0.9,1.4
			c-3.8,6.6-7.7,13.2-11.5,19.8c-2.5,4.4-5.1,8.8-7.6,13.2c-0.5,0.9-1.1,1.3-2.1,1.2c-0.9-0.1-1.8-0.1-2.8,0
			c-1.1,0.1-1.6-0.3-1.8-1.5c-0.9-4.7-1.9-9.3-2.9-14c-1.3-6.1-2.5-12.3-3.8-18.4c-0.4-1.7-0.4-1.7,1.4-1.7c1.3,0,2.6,0.1,4,0
			c1.2-0.1,1.6,0.4,1.8,1.5c0.8,4.9,1.6,9.8,2.5,14.7c0.6,3.3,1.2,6.7,1.7,10C264,49.9,264.1,49.9,264.2,49.9z"/>
		<path d="M170.3,59.3c-3.4,0-2.5,0.3-3.7-2.5c-0.9-2.3-1.8-4.6-2.6-7c-0.3-0.8-0.7-1-1.5-1c-3.5,0-7,0-10.4,0
			c-0.8,0-1.3,0.3-1.6,1.1c-1,2.7-2.1,5.4-3.1,8.2c-0.3,0.9-0.9,1.3-1.9,1.3c-1-0.1-1.9,0-2.9,0c-1.3,0-1.4-0.2-1-1.4
			c1.8-4.7,3.6-9.3,5.4-14c2.4-6.3,4.8-12.5,7.2-18.8c0.4-1,0.9-1.4,2-1.4c4.2,0.2,3.1-0.7,4.6,3.1c4,10.4,8,20.7,12,31.1
			c0.5,1.2,0.4,1.3-1,1.3C171.4,59.3,170.9,59.3,170.3,59.3z M157.4,31.1c-0.1,0-0.2,0-0.3,0c-1.3,4-2.7,7.9-4,11.9
			c-0.2,0.7,0,0.9,0.7,0.9c2.4,0,4.7,0,7.1,0c0.5,0,0.9-0.2,0.7-0.8C160.1,39.1,158.8,35.1,157.4,31.1z"/>
		<path d="M118.5,41.5c0-5.4,0-10.8,0-16.2c0-1.2,0.4-1.6,1.6-1.6c5.5,0.1,11,0.1,16.4,0c1.2,0,1.6,0.4,1.5,1.6c0,3.3,0,3.3-3.3,3.3
			c-3.2,0-6.3,0-9.5,0c-1,0-1.4,0.3-1.4,1.3c0.1,2.6,0.1,5.1,0,7.7c0,0.9,0.3,1.3,1.3,1.2c3.8,0,7.6,0,11.4,0c1.1,0,1.6,0.3,1.5,1.5
			c-0.1,0.7-0.1,1.4,0,2.2c0.1,0.9-0.3,1.3-1.3,1.3c-3.8,0-7.6,0-11.4,0c-1.1,0-1.5,0.3-1.5,1.5c0.1,2.6,0.1,5.1,0,7.7
			c0,1,0.3,1.4,1.4,1.4c3.8,0,7.5,0,11.3,0c1.1,0,1.6,0.3,1.5,1.5c-0.1,0.7-0.1,1.4,0,2c0.1,1.1-0.3,1.5-1.5,1.5c-5,0-10.1,0-15.1,0
			c-0.5,0-1,0-1.6,0c-1.1,0.1-1.4-0.4-1.4-1.4C118.5,52.4,118.5,46.9,118.5,41.5z"/>
		<path d="M205.7,44c0,4.6,0,9.1,0,13.7c0,1.6,0,1.6-1.6,1.6c-0.8,0-1.5,0-2.3,0c-1.5,0-1.7-0.1-1.7-1.6c0-2.4,0-4.8,0-7.2
			c0-6.8,0-13.5,0-20.3c0-1.6,0-1.6-1.6-1.6c-1.3,0-2.6-0.1-3.8,0c-1.1,0.1-1.4-0.4-1.4-1.4c0.1-0.7,0.1-1.4,0-2.2
			c-0.1-1,0.3-1.4,1.3-1.3c5.6,0,11.1,0,16.7,0c1,0,1.3,0.4,1.3,1.4c-0.1,4.2,0.5,3.5-3.4,3.5c-0.7,0-1.4,0.1-2.2,0
			c-1-0.1-1.4,0.3-1.4,1.4C205.7,34.6,205.7,39.3,205.7,44z"/>
		<path d="M177.6,41.5c0-5.4,0-10.9,0-16.3c0-1.2,0.4-1.6,1.5-1.5c0.9,0.1,1.8,0.1,2.6,0c0.9-0.1,1.3,0.3,1.3,1.3c0,3.2,0,6.4,0,9.6
			c0,6,0,12.1,0,18.1c0,1.6,0,1.6,1.6,1.6c3.2,0,6.3,0,9.5,0c1,0,1.5,0.3,1.4,1.4c-0.1,0.9,0,1.8,0,2.6c0,0.7-0.3,1-1,1
			c-5.3,0-10.5,0-15.8,0c-1,0-1-0.6-1-1.4C177.6,52.4,177.6,47,177.6,41.5z"/>
		<path d="M46.4,28.5c4,0,7.1,3,7.1,6.9c0,3.8-3.3,6.8-7.3,6.8c-3.9,0-7.2-3.2-7.2-6.9C39.2,31.4,42.4,28.5,46.4,28.5z"/>
		<path d="M412.6,62.8c0,2.1-1.8,3.9-3.9,3.9c-2.1,0-3.9-1.8-3.9-3.9c0-2.1,1.7-3.9,3.9-3.9C410.9,58.9,412.6,60.6,412.6,62.8z
			 M407,64.8c0-1.2,0-2.2,0-3.2c0-0.4,0-0.9,0.5-0.9c0.9-0.1,1.8-0.3,2.5,0.4c0.7,0.6,0.3,1.3-0.1,1.9c-0.3,0.6,0.2,1.1,0.6,1.4
			c0.3,0.3,0.5-0.1,0.7-0.4c0.7-1.2,0.3-2.9-0.9-3.7c-1.2-0.8-2.9-0.5-3.8,0.6C405.6,62.2,405.7,63.7,407,64.8z"/>
		<path d="M30.8,9.4c-1.8,0-3.2-1.4-3.2-3.1c0-1.5,1.6-2.9,3.1-2.9c1.7,0,3.1,1.3,3.1,3C33.9,8.1,32.6,9.4,30.8,9.4z"/>
		<path d="M60.7,6.4c0,1.6-1.4,3-3.1,3c-1.7,0-3.1-1.3-3.1-2.9c0-1.6,1.4-3,3.1-3C59.3,3.4,60.7,4.8,60.7,6.4z"/>
		<path d="M26.2,12.1c0,1.3-1.2,2.4-2.5,2.4c-1.4,0-2.6-1.1-2.6-2.4c0-1.3,1.2-2.4,2.5-2.4C25,9.7,26.2,10.8,26.2,12.1z"/>
		<path d="M64.9,9.8c1.4,0,2.5,1,2.4,2.4c0,1.3-1.2,2.4-2.6,2.3c-1.4,0-2.5-1.2-2.5-2.4C62.3,10.8,63.5,9.8,64.9,9.8z"/>
		<path d="M19,21.3c-0.8,0-1.5-0.7-1.5-1.5c0-0.8,0.7-1.5,1.6-1.5c0.9,0.1,1.5,0.6,1.5,1.5C20.6,20.6,19.8,21.3,19,21.3z"/>
		<path d="M69.4,21.3c-0.8,0-1.5-0.8-1.5-1.6c0-0.8,0.8-1.5,1.6-1.4c0.8,0.1,1.4,0.6,1.4,1.5C71,20.6,70.2,21.3,69.4,21.3z"/>
	</g>
</g>
</svg>
