<?xml version="1.0" encoding="utf-8"?>
<!-- Generator: Adobe Illustrator 27.0.0, SVG Export Plug-In . SVG Version: 6.00 Build 0)  -->
<svg version="1.1" id="Layer_1" xmlns="http://www.w3.org/2000/svg" xmlns:xlink="http://www.w3.org/1999/xlink" x="0px" y="0px"
	 viewBox="0 0 2400 2400" style="enable-background:new 0 0 2400 2400;" xml:space="preserve">
<style type="text/css">
	.st0{fill:#FFFFFF;}
</style>
<rect y="0" class="st0" width="2400" height="2400"/>
<g>
	<g>
		<path d="M696.5,1412.5c14.8,4.1,26.3,7.1,37.1,12.2c30.2,14.2,50,37.7,59.7,68.8c15.9,50.7,14.8,102.1-1.2,152.5
			c-17.9,56.1-58.9,86.5-115.6,97.2c-16.4,3.1-32.9,4.3-49.6,4.3c-55.9,0-111.8-0.2-167.7,0.2c-8.7,0.1-10.5-2.4-10.5-10.7
			c0.2-200.7,0.3-401.4,0-602.1c0-8.8,2.2-11.3,11.1-11.1c57.8,0.9,115.6-1.3,173.4,1.6c23,1.1,45.7,4.9,67.4,13.3
			c47.9,18.4,73.8,54,81.8,103.7c3.2,19.8,3.8,39.8,2.3,59.8C781,1353.7,761.3,1396.6,696.5,1412.5z M562.7,1561
			c0,32.4,0.2,64.9-0.1,97.3c-0.1,6.7,1.3,9.5,8.6,9.2c16.6-0.8,33.3,0,49.8-1.3c38.9-3.1,58.7-17.7,67.4-50.9
			c8.9-34.2,8.5-68.8-0.3-103c-7.7-29.9-27.6-47.5-58.2-52.9c-19.1-3.4-38.4-1.8-57.6-2.6c-8.3-0.4-9.9,2.8-9.8,10.3
			C563,1498.4,562.7,1529.7,562.7,1561z M562.7,1291c0,26.4,0,52.8,0,79.2c0,3.8-1.6,8.7,5.4,8.6c24.1-0.4,48.4,1.8,72.1-4.9
			c19.5-5.5,33.5-17.6,39.5-37c8.1-26.4,9.9-53.5,4.2-80.5c-5.6-26.4-21.6-42.9-49-48.2c-21.3-4.1-42.8-4.3-64.3-4.9
			c-6.6-0.2-8.2,2.3-8.1,8.5C562.9,1238.1,562.7,1264.5,562.7,1291z"/>
		<path d="M1228.2,1442.8c-0.6,39.8,1.4,87.8-1.3,135.6c-1.8,31.8-7.3,62.8-20.9,91.9c-20.3,43.7-54.3,70.8-101.6,79.8
			c-44.6,8.5-89.3,9.5-133.1-5.3c-44.4-15-72-46.5-87.1-89.8c-12.2-35-15.4-71.4-15.5-108c-0.2-75.4-0.2-150.9,0-226.3
			c0.1-35.2,3.2-70,14.7-103.6c16.9-49,49.7-81.1,100.8-92.4c50.2-11.1,100.5-11.4,149.4,6.7c40.2,14.9,64.9,45.2,79.2,84.6
			c12.7,35.3,15,72.1,15.3,109.2C1228.4,1361.5,1228.2,1398.1,1228.2,1442.8z M1112.4,1446c0-56,0.2-101.7-0.1-147.3
			c-0.1-20-0.7-40-6.2-59.4c-5-17.8-15.4-31.2-33.8-36.4c-13.5-3.9-27.5-4.1-41.5-1.5c-21.1,3.9-34.2,16.3-40.4,36.5
			c-4.1,13.4-6.3,27.2-6.3,41.2c-0.1,101.5-0.1,202.9-0.2,304.4c0,11.7,1.2,23.3,2.8,34.9c5,35.8,22.6,51.7,58.5,53.2
			c35.3,1.5,55.4-13.6,62.4-47.3c1.8-8.8,2.9-17.9,3.4-26.9C1114,1543.5,1111.6,1489.6,1112.4,1446z"/>
		<path d="M1594,1747.5c-14.4,0-28.7-0.4-43.1,0.2c-7,0.3-9.9-2-11.1-8.9c-6.7-41.3-14-82.4-20.6-123.7c-1.4-8.9-4.2-12.3-14.1-12
			c-29.1,0.9-58.2,0.6-87.2,0.1c-7.9-0.2-10.2,2.9-11.4,9.7c-6.9,40.1-14.5,80.1-20.7,120.2c-1.8,11.6-5.6,15.2-17.6,14.8
			c-27.5-1.1-55.1-0.6-82.7-0.2c-7.5,0.1-9.7-1.4-8.1-9.4c40.6-201.1,81-402.3,121.1-603.5c1.7-8.4,4.3-11.1,12.9-11
			c33.6,0.5,67.2,0.4,100.8,0c7.9-0.1,10.8,2,12.4,10.2c35.1,176.9,70.6,353.7,106.1,530.5c4.9,24.4,9.5,48.8,15,73
			c1.9,8.4-0.3,10.5-8.5,10.1C1622.7,1747.1,1608.3,1747.5,1594,1747.5z M1420,1530.8c24.9,0,48.3-0.6,71.6,0.3
			c10.8,0.4,13-2.6,11.3-13c-10.8-64.2-21-128.6-31.5-192.9c-2.6-16.1-5.4-32.2-8.1-48.4c-0.7,0.1-1.4,0.1-2.1,0.2
			C1447.5,1361.1,1433.9,1445.3,1420,1530.8z"/>
		<path d="M1742.9,1477.3c0-85.6-0.2-171.2,0.3-256.9c0.1-10.7-3.2-13.1-13.2-12.8c-25.7,0.7-51.4,0-77,0.4c-7.4,0.1-9.6-2-9.4-9.4
			c0.5-21.9,0.4-43.8,0-65.6c-0.1-6.5,1.1-9.2,8.5-9.2c98.2,0.3,196.4,0.2,294.6,0.1c6.5,0,8.3,1.8,8.2,8.2
			c-0.4,22.6-0.4,45.3,0,67.9c0.1,6.7-2.4,8.1-8.5,8c-25.7-0.3-51.4,0.3-77-0.3c-9.6-0.2-12.6,1.8-12.5,12.1
			c0.4,170.1,0.3,340.2,0.3,510.3c0,17.4,0,17.4-17,17.4c-28.7,0-57.4-0.4-86.1,0.2c-9,0.2-11.3-2.4-11.3-11.3
			C1743,1650.1,1742.9,1563.7,1742.9,1477.3z"/>
		<path d="M448.9,868.7c0-67.2,0.3-134.3-0.3-201.5c-0.1-10.4,3-12.4,12.6-12.2c35.5,0.8,71,0.2,106.5,1c21.2,0.5,42.1,3.6,62,11.6
			c28.6,11.6,45.3,33.3,51.7,62.7c6.5,29.9,5.5,60-2.3,89.6c-5.5,20.8-16.9,38-37,47.5c-7.6,3.6-8.2,7.4-6.1,14.8
			c18.2,63.3,35.8,126.8,54.1,190c2.6,9,0.9,10.9-8.1,10.6c-19.3-0.6-38.5-0.5-57.8,0c-7.2,0.2-10.3-1.9-12.2-9.3
			c-15.1-58.7-31-117.2-46.1-175.9c-2-7.9-4.8-10.9-13.4-10.8c-25.6,0.5-25.6,0.1-25.6,26.1c0,53.2-0.1,106.4,0.2,159.6
			c0,7.7-1.6,10.4-9.8,10.2c-19.6-0.6-39.3-0.7-58.9,0c-8.5,0.3-9.6-2.9-9.6-10.3C449,1004.5,448.9,936.6,448.9,868.7z M526.9,772.6
			c0,18.8,0.2,37.7-0.1,56.5c-0.1,6,1,9,7.9,8.6c9.4-0.6,18.9,0.2,28.3-0.3c26.8-1.3,42.4-15.1,47.6-41.1c2.7-13.5,2.8-27.1,1-40.5
			c-4.5-33.5-18.2-45.5-52.2-47c-8.3-0.4-16.6,0.2-24.9-0.3c-6-0.3-7.8,1.8-7.7,7.7C527.1,734.9,526.9,753.7,526.9,772.6z"/>
		<path d="M1692.9,834.4c0,4,0,8.1,0,12.1c0,75.1-0.1,150.1,0.2,225.2c0,8-1.4,11.4-10.4,10.9c-15.8-0.8-31.7-0.5-47.6-0.1
			c-6.5,0.2-9.2-1-9.2-8.5c0.2-136.9,0.2-273.9,0.1-410.8c0-6.6,2.2-8.9,8.4-8.1c0.4,0,0.8,0,1.1,0c14.7,0.2,31.9-4.3,43.4,1.9
			c11.6,6.3,13.2,25,19,38.4c27.1,62.9,53.8,125.9,80.7,188.9c1.3,3,2.8,5.8,6.1,8.6c0-3.5,0-7,0-10.5c0-72.1,0.2-144.1-0.2-216.2
			c0-8.7,1.9-11.8,11.1-11.3c13.9,0.8,28,0.8,41.9,0c9.4-0.5,12,2.2,11.9,11.8c-0.4,85.3-0.2,170.5-0.2,255.8
			c0,49.8-0.2,99.6,0.2,149.4c0.1,8.2-1.6,11.4-10.5,10.8c-13.5-0.9-29.7,3.8-40-2c-10.3-5.9-11.7-23.3-16.8-35.7
			c-27.8-67.5-55.5-135-83.2-202.5c-1.1-2.7-2.2-5.4-3.3-8.1C1694.6,834.4,1693.8,834.4,1692.9,834.4z"/>
		<path d="M983.1,867.8c-1.5,40.3,2.7,80.8-3.5,120.9c-5.9,38.2-21.3,70.4-58.3,88.5c-45.6,22.3-122.5,11.4-153.5-22.5
			c-18.3-20.1-25.8-44.9-28.5-71.1c-5.2-49.3-1.7-98.7-2.3-148.1c-0.3-27.9-1.9-55.9,2.2-83.6c4.9-33.3,15-64,45.3-83.5
			c23.1-14.9,49.4-18.2,76-18.1c26.2,0.2,52,3.4,74.8,18.4c28.5,18.8,39.5,47.6,44.3,79.3C985.7,787.7,981.7,827.9,983.1,867.8z
			 M816.1,868.1c-0.1,0-0.2,0-0.4,0c0,30.5-0.1,61.1,0,91.6c0,13.2-0.1,26.4,2.8,39.4c2.8,12.3,8.1,23.9,20.6,27.8
			c27.2,8.4,57,5,62.2-33.9c0.6-4.5,1.4-9,1.4-13.5c0.3-70.1,0.6-140.3,0.7-210.4c0-10.5-0.6-21.1-3.2-31.4
			c-2.9-11.9-8.3-22.7-20.4-26.6c-25-8.1-57.7-5.5-62.2,33.8c-0.6,4.9-1.5,9.7-1.5,14.6C816,795.7,816.1,831.9,816.1,868.1z"/>
		<path d="M1040.5,868.8c0-67.5,0.2-135-0.2-202.5c0-8.7,2.1-11.6,11.1-11.2c18.5,0.7,37,0.8,55.5,0c9.7-0.4,11.7,2.6,11.7,11.9
			c-0.3,115.8-0.2,231.6-0.2,347.3c0,16.1-2.5,14.5,14.3,14.6c26.4,0.1,52.9,0.4,79.3-0.2c8.8-0.2,10.9,2.5,10.4,10.8
			c-0.7,12-0.4,24.1-0.1,36.2c0.2,5.4-1.5,7.1-7,7.1c-55.9-0.2-111.8-0.3-167.7,0.1c-9,0.1-7.1-5.3-7.2-10.3
			C1040.5,1004.5,1040.5,936.6,1040.5,868.8z"/>
		<path d="M1260.7,868.1c0-67.5,0.2-135.1-0.2-202.6c-0.1-8.7,2.4-10.7,10.7-10.4c18.9,0.6,37.8,0.7,56.7,0
			c9.3-0.4,11.1,2.8,11.1,11.5c-0.3,116.2,0,232.5-0.5,348.7c-0.1,12,3.5,14.2,14.5,13.9c26.8-0.8,53.7,0,80.5-0.4
			c6.8-0.1,9.3,1.5,9,8.7c-0.6,12.4-0.4,24.9-0.1,37.3c0.2,5.6-1,7.9-7.3,7.9c-55.5-0.2-111.1-0.3-166.6,0.1
			c-8.4,0.1-7.8-4.2-7.8-9.7C1260.8,1004.7,1260.7,936.4,1260.7,868.1z"/>
		<path d="M1560.2,870.2c0,67.2-0.2,134.3,0.2,201.5c0.1,8.8-2.1,11.5-11.1,11.1c-19.2-0.7-38.5-0.6-57.8,0c-7.2,0.2-8.7-2.2-8.6-9
			c0.2-136.6,0.2-273.1,0-409.7c0-6.9,1.8-9.1,8.8-8.9c19.6,0.4,39.3,0.6,58.9-0.1c8.4-0.3,9.7,2.8,9.7,10.3
			C1560.1,733.6,1560.2,801.9,1560.2,870.2z"/>
		<path d="M1893.8,726.9c0-21.1,0.2-42.2-0.1-63.2c-0.1-6.2,1.5-8.7,8.1-8.5c15.1,0.4,30.2,0.3,45.2,0c5.8-0.1,7.8,0.9,6.6,7.6
			c-7.7,42.9-14.9,85.9-22.1,128.9c-1,6-3,8.7-10,8.8c-27.8,0.2-27.8,0.5-27.8-27.3C1893.8,757.8,1893.8,742.3,1893.8,726.9z"/>
	</g>
</g>
</svg>
