<?xml version="1.0" encoding="utf-8"?>
<!-- Generator: Adobe Illustrator 27.0.0, SVG Export Plug-In . SVG Version: 6.00 Build 0)  -->
<svg version="1.1" id="Layer_1" xmlns="http://www.w3.org/2000/svg" xmlns:xlink="http://www.w3.org/1999/xlink" x="0px" y="0px"
	 viewBox="0 0 2000 887" style="enable-background:new 0 0 2000 887;" xml:space="preserve">
<style type="text/css">
	.st0{fill:#FFFFFF;}
</style>
<g id="KOkwFJ_00000121974076649422194680000008120840770200082110_">
	<g>
		<path d="M1182.3,704.5c21,0,42,0.3,63-0.1c12.8-0.2,25,1.7,37.3,5.6c89.7,28.7,179.4,57.1,269.1,85.6c1.6,0.5,3.1,1,4.6,2
			c-89.9-24.5-180-48-270.9-68.4c147,44.5,295.8,82.9,442.3,129.1c-6.9,0.2-607.6-150.6-617.8-154.9c4.3-0.3,8-0.6,11.7-0.9
			c0-0.5,0.1-1,0.1-1.5c-4.5-0.9-9-1.9-13.6-2.7c-2.3-0.4-3.6-1.2-4-4c-0.3-2.1-2.5-4-4-5.9c-3.8-4.5-7.7-9-11.7-13.3
			c-1.1-1.1-2.9-1.6-4-2.7c-1.9-2-4-4-5.3-6.5c-1.2-2.3-0.5-4.6,2.6-5.3c0.4-0.1,0.9-0.5,1.2-0.9c2.2-2.5,4.5-5,7.2-8.2
			c-2.7-1.3-6.4-3.2-10.2-5.1c0-0.5,0-0.9,0-1.4c124-0.3,246.1-13.9,364-54.3c-1.2,0.3-2.4,0.5-3.6,0.9
			c-53.6,15.9-108.2,27.1-163.6,33.7c-36.4,4.4-72.9,7.6-109.4,10c-34.9,2.3-69.9,2.8-104.8,4.1c-1.4,0-3.3-0.2-4.1-1
			c-3.6-4.2-7.8-6-14.3-3.8c1.9-5.8,1.6-10.2-2.3-14.1c-0.9-0.9-0.1-3.4-0.1-5.9c-1.8,1.5-3.9,2.6-5,4.3c-1.1,1.7-1.2,4-1.8,6
			c-0.5-0.1-1-0.3-1.4-0.4c0.7-3.4,1.4-6.9,2.4-11.8c-3.3,1.7-5.3,2.6-7.5,3.7c0.3-1.8,0.5-3.5,0.6-3.9c-1.5-2.3-2.5-3.8-3.8-5.7
			c-0.2,0-1.3,0-2.5,0c0.1-1.2,0.3-2.2,0.5-4.3c-2.8,1.7-4.8,2.9-7.4,4.4c0.6-1.8,1.1-3.2,1.8-5.3c-2.2,0.3-3.9,0.5-6,0.7
			c-1.1-1.8-2.3-3.8-4-6.6c9.1-0.7,17.4-1.2,25.7-2c36.5-3.2,73.1-5.7,109.5-10c42.3-4.9,84.5-10.9,126.7-17.3
			c24.2-3.6,48.3-8.2,72.1-13.4c34.7-7.6,69.3-15.8,103.7-24.6c43-11,85.2-25,126.9-40.3c1.5-0.6,3-1.3,4.2-2.8
			c-2,0.6-3.9,1.3-5.9,1.8c-41.2,11.7-82.3,24.1-123.7,35c-66.6,17.6-134.4,30-202.5,40.2c-60.8,9.1-121.9,15.9-183.2,20.4
			c-20.1,1.5-40.2,2.8-60.3,3.9c-3.9,0.2-7.9-0.4-11.7-1.3c-1.5-0.4-2.4-2.8-4.1-4.9c-1.4,1.2-2.7,2.9-4.5,3.7
			c-1.7,0.7-4.4,1.4-5.6,0.6c-6.9-5.2-7.7-5.2-12.2,1.5c-4.6,0-9.1,0-13.6,0c-0.1,0.5-0.2,1.1-0.3,1.6c2,0.4,4.1,0.8,6.1,1.2
			c0,0.6-0.1,1.1-0.1,1.7c-142.5,7.4-284.9,5.5-427.4-3.2c-0.1,0.4-0.1,0.8-0.2,1.2c1.3,0.3,2.5,0.7,3.8,0.8
			c122.7,10.1,245.5,14.2,368.6,11.2c17.5-0.4,35-1.1,52.5-1.4c2.5,0,4.9,1.1,7.4,1.7c-1.7,1.8-3.3,3.7-5.1,5.3
			c-1.6,1.4-3.6,2.3-5.6,3.5c1.2,1.9,2.2,3.5,3.8,6.1c-2.7-0.9-4.4-1.5-6.8-2.3c0.6,1.5,1,2.3,1.2,3.1c0.3,1.3,0.5,2.5,0.7,3.8
			c-1.1-0.2-2.2-0.7-3.2-0.5c-1.5,0.2-2.9,0.9-3.5,1.1c1.1,3.4,2.2,6.1,2.7,8.9c0.1,0.8-1.4,2-2.3,2.8c-0.2,0.2-1.3-0.7-2-1.2
			c0.7-1,1.4-2.1,2.6-3.7c-0.9-0.3-3-1.3-3.2-1c-3.4,5.6-5.7,1.2-8.6-1.2c-1.7,2.4-3.4,4.8-5.6,8c3.8,0.4,6.9,0.8,10.9,1.3
			c-1.4,0.8-2.6,2-3.8,2.1c-9.3,0.4-18.7,0.6-28,0.6c-1.6,0-3.3-1.7-4.9-2.8c-2.5-1.8-5.2-3.9-7.8-0.6c-2.7,3.4-4.7,3-6.8-0.5
			c-0.4-0.7-1.1-1.2-2-2.2c-0.5,1.9-0.9,3.4-1.4,5.3c-2.4,0-4.8,0.1-7.3,0c-29.8-0.9-59.6-1.9-89.4-2.9c-2.3-0.1-4.6-1.4-8-2.6
			c-3.8,4.2-9.8,2.1-15.7,1.8c-29.8-1.6-59.6-3.1-89.3-4.5c-2.2-0.1-4.5,0.7-6.8,1c-3.5-5.1-5.8-8.2-9.8-2.8c-3.2-1.8-6.6-3-9.1-5.3
			c-3.7-3.4-6.8-7.6-9.9-11.6c-2.3-2.9-4.1-6-8.7-5.5c-1.2,0.1-2.6-2.2-4.1-2.8c-3.9-1.4-7.8-1.3-11.7,0.3c-1.5,0.6-3.4-0.1-5.9-0.2
			c2.1,2.8,6.3,4.4,4.5,9.2c-2-2.3-3.8-4.3-5.5-6.3c-0.4,0.2-0.7,0.5-1.1,0.7c0.6,1.5,1.3,3,2,4.7c-5.9,4.5-5.5-4.3-9.5-4.5
			c0.7,1.9,1.4,3.6,1.8,4.8c-3.3,0.8-6.3,1.5-10.7,2.6c3.5,2,5.6,3.2,7.8,4.4c-0.1,0.4-0.2,0.7-0.2,1.1c-2.6-0.2-5.1-0.4-8.6-0.7
			c2,1.9,3.4,3.2,5.2,5c-2.9,2-10.1-1.4-7.7,6c-7.1,0.3-10.5-1.7-18.9-10.9c-3,4.7-5.7,2.6-8.7-0.1c-1.5-1.3-3.5-2-5.8-2.1
			c1.8,0.9,3.5,1.7,5.5,2.7c-2.9,3.2-4.8,2.1-6.6-0.2c-7.6-9.7-15.2-19.4-23-28.9c-1.5-1.8-4.2-3.4-6.4-3.6
			c-46-4.9-92.1-9.3-138.1-14.4c-15.2-1.7-30.2-4.8-45.4-7.3c-1.8-0.3-3.5-0.5-5.3-0.7c-0.1,0.4-0.1,0.8-0.2,1.2
			c19,3.3,37.9,6.6,56.9,9.9c0.1,0.6,0.3,1.2,0.4,1.9c-3.5,1.4-7,3.4-10.7,4.1c-5.2,0.9-10.6,0.8-15.9,1c-4.1,0.2-7.9-0.3-10.1-4.7
			c-0.5-1.1-2.3-1.8-3.7-2.2c-4.7-1.6-9.5-3.2-14.3-4.5c-3.8-1-6.7-2.4-7.6-6.8c-0.3-1.2-2.5-2.5-4-2.9c-2-0.5-4.3,0-6.5-0.1
			c-9.4-0.2-18.8,0.1-26.7-7c-4.8-4.3-11.4-5.1-17.9-5c-11.5,0.2-14.3-2-18-13.1c-0.7-2-1.6-4-2.2-6c-0.7-2.1-1.1-4.3-1.8-7
			c-7,0-3.1-5.6-3.6-9.8c-1.6,1.1-2.7,1.9-3.8,2.7c-3.8-6.1-2.9-6.1,1.9-10.4c6.6-5.9,12-13.1,18-19.8c1.8-2,3.4-4.8,5.7-5.6
			c5.6-1.9,9.2-5.6,11.3-10.6c4.7-10.7,12.8-17,23.5-21.6c35.8-15.4,71.3-31.4,106.8-47.5c5.2-2.3,10.1-5.9,14.1-9.9
			c14.7-14.7,29.2-29.7,43.4-45c3.4-3.6,6-8.4,7.7-13.1c6.1-17.6,11.5-35.4,17.6-53c12.4-36,36.3-63,67.4-83.8
			c16.1-10.8,33.7-19.4,50.9-28.5c11.6-6.1,23.3-4.5,34.1,2.7c5,3.3,9.9,6.8,14.4,10.7c3.5,2.9,6.5,3,10.4,0.8
			C696.2,165,725,150,755.2,138c34.5-13.7,70-24.3,106.3-32.3c46.9-10.4,94.4-16.3,142.3-18.6c42.3-2,84.6-1.6,126.8,2
			c15.1,1.3,30.1,3.6,45,5.8c3.6,0.5,7.3,2.3,10.4,4.3c3.1,2,5.8,4.7,2.1,8.9c-0.6,0.7,0.3,3.9,1.4,4.7
			c13.9,9.8,27.8,19.5,41.9,28.9c1.7,1.2,4.5,1.5,6.6,1.3c40.8-4.9,81.6-10.3,122.5-15c41.5-4.8,83.1-9.2,124.7-13.4
			c33.8-3.5,67.6-7,101.5-9.5c31.2-2.3,62.4-4.4,93.6-4.7c22.2-0.2,44.4,2.6,66.6,4.5c9.1,0.8,18.1,2.8,27.1,3.7
			c20.5,2.1,35.9,12.5,46.1,29.7c5.6,9.4,12.4,13.7,23,15.9c26.5,5.5,52,14.3,74.8,29.4c14.3,9.4,26.2,21.1,32.8,37.3
			c0.6,1.5,1.2,3.1,1.7,4.7c2.7,8.7-0.9,13.1-9.8,12.1c-75.5-8.8-151.3-10.5-227.1-8c-48.6,1.6-97.2,4.8-145.6,9
			c-60.1,5.1-120.1,10.9-179.9,18.4c-73,9.1-145.7,19.6-218.5,30.5c-91.2,13.7-181.8,30.8-271.9,50.3
			c-51.4,11.1-102.6,22.8-153.7,35.3c-146.5,35.6-291.1,77.8-434.3,124.8c-13.7,4.5-27.5,9.1-41.2,13.7c-1.7,0.6-3.3,1.3-4.7,2.9
			c10.3-3.1,20.6-6.1,30.9-9.3c121-36.7,242.3-72.1,364.9-103.1c39-9.9,78-19.7,117.3-28.2c80.8-17.5,161.6-35.2,242.7-50.8
			c67.6-13,135.8-23.4,203.7-34.6c28.7-4.7,57.6-8.9,86.5-12.6c53-6.8,106-13.8,159.1-19.3c58.1-6.1,116.4-11.3,174.7-15.7
			c68.7-5.1,137.5-5,206.3-1.6c24.1,1.2,48.2,2.7,73.5,4.2c-1.6,1.3-2.2,2-2.9,2.3c-42.1,20.6-79.4,48.3-113.3,80.3
			c-26.6,25.1-52.4,51.3-77.9,77.5c-54,55.5-107.5,111.6-167,161.4c-39.6,33.1-81.2,63.2-127.9,85.8c-45.6,22-93.5,36.3-143.8,42.9
			c-35.7,4.6-71.5,7.9-107.5,8.8c-1,0-2,0.2-3,0.2C1182.2,703.5,1182.2,704,1182.3,704.5z M673,372c-0.1-0.3-0.1-0.5-0.2-0.8
			c3.4-1.1,6.9-2.3,10.3-3.3c61.6-17.5,123.2-34.8,184.8-52.5c80.1-23.1,160.9-43.6,243.2-57.1c74.7-12.2,149.6-23.4,224.7-33.3
			c56.2-7.4,112.7-13.1,169.3-17.7c54.1-4.4,108.4-6.6,162.6-9.7c7.4-0.4,14.9-0.7,22.3-1c0-0.5,0-0.9,0-1.4
			c-51.9,0-103.8,0-155.7,0c0-0.6,0-1.1,0-1.7c26.8-2,53.5-4,80.3-5.9c0-0.3,0-0.6-0.1-1c-55.7,2.1-111.4,4.3-167.1,6.4
			c14.5-2,29-3.2,43.6-4.2c21.4-1.4,42.8-2.5,64.2-4.1c22.9-1.7,45.8-3.5,68.7-6c26.8-2.9,53.5-6.5,80.3-10
			c4.8-0.6,9.4-2.2,14.2-3.3c0-0.8,0.1-1.6,0.1-2.3c-5.6-1.5-11.1-3.5-16.8-4.3c-36.5-5.3-73.1-7.3-110-7.1
			c-79.4,0.3-158.6,3.6-237.5,12.1c-46.2,5-92.3,10.6-138.2,17.4c-69.3,10.2-137.9,24.3-206.1,40.4
			C885.3,251.3,763.2,289,644.7,337.8c-38.8,16-77.6,31.7-116.2,48c-38.3,16.1-76.4,32.8-114.6,49.2c-0.1,0-0.1,0.4-0.3,1.6
			c18.9-6,37.4-11.9,55.9-17.8c0.1,0.4,0.3,0.9,0.4,1.3c-27.1,9.2-54.1,18.4-81.2,27.6c0.1,0.4,0.3,0.9,0.4,1.3
			c19-5.8,38-11.5,57-17.3c0.1,0.3,0.2,0.6,0.3,0.9c-60.9,22.9-121.9,45.7-182.8,68.6c0.2,0.5,0.4,1,0.5,1.5
			c1.5-0.4,3.1-0.8,4.6-1.3c17.1-5.9,34.2-12,51.4-17.8c124-42.1,249.8-78.1,376.7-110c37.7-9.5,75.5-19,113.5-27.4
			c60.2-13.4,120.5-26.5,181.1-38.4c56.8-11.1,114-20.7,171.1-30.3c36.8-6.2,73.7-11.5,110.6-16.6c32.1-4.5,64.4-8.3,96.6-12.1
			c32.4-3.9,64.8-7.6,97.3-10.9c35-3.5,70-6.6,105-9.4c37.4-2.9,74.8-5.8,112.2-7.7c34.3-1.7,68.6-2.2,102.9-3.3
			c3.8-0.1,7.5-0.5,11.3-0.8c-8.6-0.9-17.2-0.9-25.8-0.9c-57.7-0.3-115.3,0.8-172.8,5.2c-60.1,4.6-120.1,10.1-180.2,15.6
			c-28,2.6-56,5.7-83.8,9.3c-52,6.9-104,13.5-155.8,21.7c-61,9.6-121.8,20.1-182.5,31.4C897.4,318,798.2,341,699.4,365.6
			C690.6,367.8,681.8,369.9,673,372z M287.4,463.1c0.2,0.5,0.4,1,0.5,1.6c1.5-0.2,3-0.2,4.4-0.6c11.3-3.2,22.7-6.4,34-9.9
			c73.6-22.6,144.4-52.5,215.3-82.1c48-20.1,95.9-40.6,144.3-59.7c76.3-30.2,154.1-55.9,233.5-76.9c72.9-19.2,146.2-36.5,220.4-49.8
			c46.3-8.3,92.9-15.8,139.4-22.8c29.8-4.5,59.7-8,89.7-11.3c30-3.3,60-6.2,90-8.6c27.6-2.3,55.2-3.7,82.8-5.6
			c2.6-0.2,5.5-0.6,7.6-2c9.8-6.5,20.7-7.4,31.7-6.3c4.4,0.4,8.6,3.7,12.9,5.7c2.2,1,4.5,2.8,6.7,2.8c20.3-0.1,40.6-0.5,60.9-0.9
			c6.2-0.1,12.4-0.7,20-1.1c-13.1-10.1-25.2-19.2-40.2-23c-2.1-0.5-4.3-0.7-6.4-0.5c-45.5,3.8-91,7.3-136.4,11.7
			c-56.8,5.5-113.7,11.3-170.4,18c-64.1,7.6-128.2,16-192.1,25c-64.3,9.1-127.8,22.1-190.8,38c-68.3,17.3-135.4,38.4-200.1,66.4
			c-96.9,42-194.3,82.8-293.2,119.9c-54.4,20.4-107.3,44.3-159.9,69.1C290.4,460.9,288.9,462.1,287.4,463.1z M733.3,266.1
			c-2.2-1.3-3.4-2.1-4.6-2.8c-26.6-14.1-53.3-28.1-79.7-42.4c-5.1-2.8-8.7-2.6-13.5,0.7c-26.7,18.5-52.4,38.3-76.2,60.5
			c-8.7,8.1-16.3,17.5-23.1,27.3c-6.3,9.1-8.1,20.1-8.9,31.5c11.5-2.9,22.4-5.6,33.3-8.3c0.1,0.4,0.2,0.7,0.3,1.1
			c-33.4,13-66.8,25.9-100.1,38.9c0.1-1.5,0.6-2.1,1.2-2.7c29.7-29.9,58.7-60.6,89.4-89.3c24.2-22.5,49.8-43.8,76.2-63.6
			c44.5-33.2,94.7-56,146.5-75.2c51.6-19.1,104.8-31.4,159.6-35.9c22.3-1.8,44.6-3.8,67-4.7c21.9-0.9,43.9-0.6,65.8-0.6
			c34.1,0.1,68.2,0.6,102.1,5.1c3.1,0.4,6.2,0.5,9.3,0.7c0.1-0.6,0.2-1.2,0.2-1.8c-7.2-1.4-14.4-3.2-21.7-4c-17-1.7-34.1-3.4-51.2-4
			c-28.4-1.1-56.9-2.3-85.3-1.8c-25.6,0.4-51.2,2.2-76.6,5c-29.2,3.2-58.4,7-87.2,12.8c-67.2,13.5-130,38.9-188.3,74.7
			c-11.1,6.8-19.4,8.7-29.2-0.4c-1.3-1.2-4.8-1.4-6.6-0.6c-27.1,11.4-52.4,26.1-76.3,43.1c-21.8,15.5-29,39.2-37,63.8
			c23.4-18.4,45.9-36.1,68.3-53.8c-16.9,16.5-34.7,31.8-51.9,47.7c-17.1,15.9-33.8,32.2-50.2,48.7c-16.4,16.5-32.2,33.6-48.4,50.6
			C536.1,348.8,635.4,310.5,733.3,266.1z M929.3,197.3c-0.8,0.7-1,1-1.3,1.1c-28.8,8.1-57.7,16.1-86.5,24.2c-3.4,0.9-5.5,0-7.5-3
			c-11.2-16.3-22.8-32.4-33.9-48.9c-5.1-7.6-13.8-13.7-10.9-25.7c-47.8,17.3-92.4,38.8-135.6,65.3c2,1.1,3.4,1.9,4.9,2.7
			c28,14.8,55.9,29.5,83.8,44.3c3.4,1.8,6.1,2.1,9.8,0.7c56.7-21.9,114.1-41.4,172.9-56.7c16.1-4.2,32.2-8,48.3-12
			c-6.9,0.6-13.7,1.9-20.3,3.7c-3.9,1.1-6.3-0.1-8.7-2.8c-19.5-21.7-39.2-43.2-58.5-65c-3.5-3.9-7.2-5.3-11.9-4.1
			c-6.6,1.6-13.3,3.2-19.7,5.5c-3.4,1.2-6.4,3.6-9.6,5.4c2.3,2.9,4.2,6.4,7,8.6c13.6,10.4,27.4,20.6,41.3,30.7
			C904.9,180.1,917,188.6,929.3,197.3z M326.4,524c0,0.5,0.1,1.1,0.1,1.6c35.3,0.8,70.6,1.6,105.9,2.3c103.5,2,206.9,2.6,310.4-0.4
			c46.3-1.3,92.6-3.2,138.8-5.7c33.9-1.8,67.8-4.4,101.7-7.5c31.8-2.9,63.6-6.5,95.3-10.6c39-5,77.9-10.5,116.7-16.5
			c38.3-6,76.5-12.8,114.7-19.4c23.7-4.1,47.4-8.8,71.1-13.2c-7.5,0.1-14.9,1.1-22.2,2.2c-36.9,5.1-73.9,10.3-110.8,15.3
			c-32,4.3-64,8.6-96.1,12.6c-33.7,4.3-67.4,8.5-101.1,12.5c-20.3,2.4-40.7,5.2-61.1,6.3c-29.7,1.5-59.1-3.3-88.5-7.1
			c-11.2-1.5-22.6-3.7-33.7-2.9c-49.5,3.5-98.8,8.6-148.3,12c-66.7,4.6-133.4,8.6-200.1,12c-52.9,2.8-105.9,4.4-158.8,6.4
			C349,524.3,337.7,524,326.4,524z M1507,389.9c-0.1-0.3-0.1-0.7-0.2-1c-2.4,0.3-4.9,0.7-7.3,0.9c-25.7,2.5-51.4,4.7-77.1,7.4
			c-36.6,3.7-73.2,7.6-109.8,11.6c-33.9,3.7-67.9,7.5-101.8,11.4c-34.9,4.1-69.8,8.3-104.6,12.6c-34,4.2-68.1,8.4-102.1,12.6
			c-33,4.1-66.1,8.3-99.1,12.4c-29.1,3.7-58.1,7.4-87.2,11c-35.4,4.4-70.7,8.8-106.1,12.8c-33.3,3.8-66.6,7.1-99.8,10.5
			c-35.8,3.6-71.6,7.1-107.4,10.5c-30.3,2.9-60.7,5.9-91,8.5c-28.5,2.5-57.1,4.5-85.6,6.7c-6.5,0.5-13.1,0.7-19.7,1.1
			c2.5,0.8,5,0.9,7.4,0.8c19.8-1.1,39.6-2.2,59.4-3.4c40.9-2.5,81.8-5.1,122.7-7.6c30.6-1.9,61.2-3.4,91.8-5.5
			c32.1-2.2,64.1-4.8,96.1-7.5c26.4-2.2,52.7-4.6,79.1-7.3c22.7-2.3,45.3-5,67.9-7.7c33.6-4,67.1-8,100.6-12.4
			c37.6-4.9,75.2-10.2,112.8-15.6c36.1-5.1,72.1-10.5,108.2-15.6c34.3-4.9,68.6-9.7,102.8-14.4c35.6-4.9,71.3-9.7,106.9-14.4
			c34.5-4.6,69-9.1,103.5-13.6C1480.6,393.1,1493.8,391.5,1507,389.9z M868.6,426.2c-0.1-0.6-0.1-1.1-0.2-1.7
			c-18.2-8-37.6-8.4-57.1-7.2c-19.6,1.2-38.9,4.6-57.1,12.7c1.2-1.6,2.5-2.6,4.1-3.2c14.2-6,29-10,44.2-11.5c21.2-2.2,42.5-4,63,4.6
			c1.4,0.6,4.3-0.5,5.3-1.7c0.7-0.8-0.1-4.1-1.3-5c-2.4-1.9-5.4-3.3-8.4-4.3c-24.3-8-48.8-7.2-73.3-1.4
			c-11.4,2.7-22.1,7.3-31.4,14.7c-5.2,4.2-5.9,9.9-1.1,13.6c3.8,3,8.3,6,12.9,6.8c33.2,5.8,65.3,1.6,95.7-13.4
			C865.5,428.3,867,427.2,868.6,426.2z M1770.3,141.4c-2-5.9-14.9-22.9-19.3-25.5c-1.1-0.6-2.5-1-3.8-1.1
			c-21.9-1.6-43.7-3.3-65.6-4.7c-5.7-0.4-11.4-0.1-17.1-0.1c1.2,2,2.8,2.8,4.3,3.7c8.4,5.4,16.9,10.5,24.9,16.4
			c4.9,3.6,9.9,5.6,16,5.8c11,0.5,21.9,1.5,32.9,2.5C1751.7,139.3,1760.9,140.4,1770.3,141.4z M504.6,476.1
			c25.9-12.1,53.2-9.7,80.7-8.5c-3.8-2.2-7.8-5-12.1-5.5c-11.4-1.2-23-3-34.2-1.7c-11,1.3-21.7,5.8-32.3,9.5c-2,0.7-4.3,4.1-4.3,6.3
			c0,1.8,2.8,4.3,4.9,5.3c2.9,1.4,6.4,1.9,9.6,2.3c17.3,2.4,34.2,0.2,51-3.9c5.6-1.4,11-3.9,16.5-5.9c-0.1-0.5-0.3-1.1-0.4-1.6
			C557.2,468.1,530.7,465.9,504.6,476.1z M1086.2,107c-0.2,0.8-0.4,1.5-0.7,2.3c22.6,13,45,26.2,67.8,38.8c7.1,3.9,15.2,3.4,24,2.2
			c-1.3-1.1-1.8-1.7-2.5-2.1c-17.4-12-34.7-24-52.1-36c-1.2-0.8-2.6-1.9-3.9-2C1107.9,109,1097,108,1086.2,107z M1809.3,147.4
			c-4.3-16.3-23.2-30.4-38.7-30c5,7.9,10.3,16.1,15.6,24.2c0.6,0.9,1.6,1.9,2.5,2.1C1795.4,145.1,1802.2,146.2,1809.3,147.4z
			 M530.3,230.8c18.9-17.5,38.5-33.9,63.3-45C581.9,183.3,535,217.2,530.3,230.8z M628.1,180.7c-7.9-1.8-63.3,26-72.2,35.8
			C578.6,205.3,603.7,192.8,628.1,180.7z M490.8,304.6c4.1-6.4,8.2-12.7,12.7-19.6C495.5,285.1,489.3,294.6,490.8,304.6z
			 M501.7,297.9c0.5,0.2,0.9,0.4,1.4,0.6c5.3-6.1,8.1-13.3,7.3-21.8C507.5,283.8,504.6,290.9,501.7,297.9z M1551.4,141.2
			c0.3,0.5,0.7,0.9,1,1.4c3.5-0.3,6.9-0.5,11-0.8c-1.9-2.7-3.4-4.9-5.6-8.1C1555.4,136.6,1553.4,138.9,1551.4,141.2z M1587.1,138.3
			c-2.1-4.3-5.1-5.2-8.3-4.2c-1,0.3-1.4,2.5-2.3,4.2C1580.5,138.3,1583.4,138.3,1587.1,138.3z"/>
		<path d="M43.8,533c5-0.9,10-2.1,15-2.4c2-0.1,4.6,1.1,6.2,2.5c6.9,6.4,14.2,7.1,22.5,3.1c1.6-0.8,3.7-0.4,5.6-0.6
			c2-0.2,4.1-0.6,6.1-0.6c2.8,0,5.8-0.5,8.2,0.4c9.8,3.9,20.9,4.6,29.2,12.2c1,1,3.1,1.1,4.7,1.2c6.3,0.2,12.7,0.4,19,0.3
			c4.2-0.1,7,1.5,8.7,5.3c0.6,1.4,1.4,2.7,2,4c2.1,4.8,5.8,7.3,11.1,6.7c12.1-1.4,24.1-2.7,36.1-4.4c3.2-0.5,5.8-0.4,8.2,1.8
			c1.4,1.2,3.1,2,4.5,3.2c11.3,9.5,23.9,11,37.4,5.9c4.1-1.5,6.1-0.6,7.6,3.3c1.5,3.7,3.7,7.1,5.1,10.8c2,5.2,5.9,6.9,10.7,5.9
			c5.7-1.1,11.2-3.1,16.8-4.7c1.3-0.4,2.6-1.3,3.7-1.1c10.8,2.3,21.6,4.6,32.4,7.2c2,0.5,3.7,2,5.4,3.3c3.1,2.5,6.1,5.1,9.3,7.8
			c3.4-3,6.4-5.5,9.3-8c4.7,1.9,9.2,3.8,13.7,5.4c0.7,0.3,2.1-0.7,2.9-1.4c1.8-1.5,3.2-3.4,5.1-4.7c3.3-2.4,5.8-2.6,9.9,0.4
			c6.7,4.8,12.7,8.9,15.4,17.6c1.8,5.9,13.7,5.1,17.2-0.3c1.5-2.3,3.1-4.4,4.7-6.5c0.4-0.4,1.1-0.7,1.8-0.8
			c10.9-0.4,21.4,1,29.7,9.1c1.5,1.4,2.5,3.4,3.7,5.1c4.7-1.4,9.4-3.2,14.2-4.2c7.2-1.6,9.5-0.4,12.9,6.1c0.8,1.5,2,3.1,1.9,4.5
			c-0.3,7.6,6.1,8.4,10.8,10.4c2,0.9,5.2-0.3,7.6-1.3c3.3-1.4,5.5-1.2,7.6,1.9c1.5,2.2,3.5,4.1,5.6,5.6c3.4,2.4,7.1,3.4,11,0.3
			c1.6-1.3,3.8-1.9,5.8-2.7c4.4-1.7,7.8-0.6,10.1,3.5c1.3,2.3,2.7,4.6,4.1,6.9c4.1,6.6,5.5,6.9,10.6,2.7c6.5,2.4,12.4,4.7,18.3,6.7
			c1.2,0.4,3,0.1,4.1-0.5c2.7-1.7,5.5-3.4,7.5-5.7c1.4-1.7,1.8-4.5,2-6.8c0.8-6.8,1.5-7.3,7.5-4.1c1.5,0.8,3.1,2,4.6,1.8
			c9.6-1.2,16.3,6.6,25,8.1c1,0.2,2.3,1.6,2.4,2.5c0.4,4,2.7,5.9,6.4,6.6c3.1,0.6,5.4,1.8,3.7,6c2.7-0.8,4.8-1.4,8-2.3
			c-1.2,2.6-1.9,4-2.5,5.3c0.4,0.3,0.8,0.7,1.2,1c1.1-1.5,2.2-2.9,3.4-4.4c0.1,0.3,0.2,0.6,0.3,0.8c2.1-0.8,4.1-1.8,6.2-2.2
			c4.6-1,9.4-2.5,14-2.2c5.1,0.3,10.7-0.2,15,4c0.8,0.7,3.2-0.4,5.8-0.7c-1,2.1-1.9,4-2.7,5.7c4,1.4,8.3,1.9,11.3,4.2
			c4.7,3.6-1.7,6.9-1.2,11.7c1.5-0.8,2.8-1.5,4.7-2.5c4.9,1.4,2.9,5,0.2,9.1c2.4,0.3,3.9,0.5,5.4,0.7c-0.6,5.5-0.1,6,4.7,6.5
			c2,1.1,4.1,2,6.1,3.2c1.2,0.7,2.2,1.7,3.1,2.7c2.6,3.2,5.6,3,7.8-0.5c2.2-3.6,12.2-6.3,17.1-5.2c3.1-6.8,5-14.2,9.3-19.8
			c5.7-7.4,14.7-10.9,23.3-14.3c1.2-0.5,3.9,1.3,5.2,2.7c3.7,4,7,8.3,11,13.3c0.6-1.9,0.7-2.9,1.1-3.6c0.5-0.8,1.2-2.1,1.8-2
			c1,0.1,2.4,0.8,2.7,1.6c2.1,4.9,5.6,7.7,11,8.2c0.9,0.1,1.7,1.6,2.4,2.6c2,3.3,5.7,3.2,8.3-0.8c-1.3,0.3-2.1,0.5-2.9,0.6
			c-0.7,0.1-1.4,0-3.3,0c6.2-3.3,11.5-5.7,16.3-8.9c3.3-2.1,6.1-5.1,8.6-8.1c2.6-3.1,4.6-4.2,8.6-1.7c5.7,3.6,12,6.4,18.2,9.3
			c2.9,1.4,4.5,3.1,4,6.5c-0.3,2.6,0.1,5.5,3.6,5.3c3.8-0.1,4.6-3.1,3.9-6.1c-0.9-4.1,0.7-5.1,4.4-4.5c2.8,0.4,5.6,0.5,8.3,0.8
			c4.8-8.7,13-9.2,19.5-1.6c0.6,0.7,1.3,1.7,2.1,2c4.4,1.7,5.6,4.8,4.5,9.2c-0.3,1.1,0.2,2.3,0.3,3.5c0.6,0,1.3,0,1.9,0.1
			c0.2-2.6,0.5-5.2,0.8-8.5c1.6-0.2,4.1-0.3,6.5-0.9c1.8-0.5,3.3-2.2,5.1-2.8c2.1-0.7,4.6-1.5,6.7-1c14.2,3.4,28.4,7.1,42.6,10.6
			c36.1,9.1,72.3,18,108.4,27.2c112.3,28.6,224.7,57.2,337,86c18.7,4.8,37.3,9.9,55.9,14.9c1.1,0.3,2.1,0.7,3,2
			c-9.2,0-18.4,0-27.6,0c-45.3,0.1-90.6,0.2-136,0.2c-46.3,0-92.7-0.5-139,0.3c-21.3,0.4-41.6-3.4-62-8.8
			c-36-9.6-72.1-18.7-108.2-28.1c-0.5-0.1-0.9-0.1-1.7,0.4c44.4,18.7,88.9,37.4,133.3,56.1c-0.1,0.3-0.2,0.7-0.3,1
			c-67.3-17.1-134.7-34.1-202-51.2c-0.1,0.3-0.2,0.6-0.3,1c24.4,9.4,48.8,18.9,73.2,28.3c-0.1,0.2-0.1,0.5-0.2,0.7
			c-6.6,0-13.2-0.1-19.7,0c-16.7,0.2-33.3,0.7-50,0.6c-5.6,0-11.4-0.7-16.6-2.5c-42.1-14.2-83.9-29.2-126.1-43
			C714.8,744.8,608,710.3,501.1,675.9c-32.7-10.5-65.7-20.4-98.6-30.5c-105.7-32.5-211.4-65-317.1-97.5c-14-4.3-27.8-9-41.7-13.5
			C43.8,534,43.8,533.5,43.8,533z"/>
		<path d="M12.3,549.4c212.5,88.1,423.2,180.1,632.9,275.3c-2.1,0-4.1,0-6.2,0c-32.5-0.1-65-0.3-97.5-0.4c-2,0-4-0.2-6,0.1
			c-14.6,2.2-27.6-2-40.8-8.3c-75-36-150.3-71.4-225.5-107c-2.8-1.3-5.6-2.6-8.7-3.4c47.9,40.3,98.4,77.5,144.2,120.4
			c-32.8-17.3-63.8-37.5-94.9-57.5c-31.1-20-62-40.2-93.5-59.8c39.4,38.1,78.9,76.2,119,115c-9.5,1.3-16.7,1.7-24.2-5.1
			c-57-51.7-114.6-102.7-171.9-154.2c-41-36.8-81.8-74-122.6-111C15.1,552.2,13.7,550.8,12.3,549.4z"/>
		<path d="M1456.5,664c75.1,24.7,150.2,49.4,225.3,74.2c-0.1,0.3-0.2,0.6-0.2,0.9c-82.4-22.2-164.9-44.4-248.9-67
			c6.8-3,12.4-5.1,17.7-7.8c17.5-8.8,34.9-17.9,52.5-26.6c2.5-1.2,5.8-1.8,8.5-1.3c32.3,5.7,64.5,11.6,96.8,17.5
			c23.9,4.3,47.8,8.6,71.6,13c30.4,5.6,60.8,11.3,91.2,17c24.7,4.7,49.4,9.4,74,14.1c0.9,0.2,1.8,0.6,2.7,0.9
			c-0.1,0.5-0.1,1-0.2,1.6c-68.4-4.7-136.7-9.4-203.2-14c95,30.6,193.1,57.8,290.9,86.4c-159.3-37-318.7-73.9-478-110.9
			C1456.9,662.6,1456.7,663.3,1456.5,664z"/>
		<path d="M1995.8,856.9c-24.5-5.2-49-10.8-73.7-15.4c-77.8-14.6-152.6-40.4-228.1-63.2c-29.1-8.8-58.1-17.9-87.2-26.9
			c-1.9-0.6-3.7-1.2-5.5-2.3c132.8,31.6,264.4,67.2,395,106.7C1996.2,856.1,1996,856.5,1995.8,856.9z"/>
		<path d="M839.2,861.1c-11.3-3.1-22.7-6-34-9.3c-31.2-9.2-63.3-15.4-93-29.5c-26.7-12.7-53.7-24.8-80.6-37.3
			c-30.6-14.3-61.1-28.6-91.7-43c-1.6-0.8-3.3-1.6-4.7-2.9C637.5,777.3,738.8,817.8,839.2,861.1z"/>
		<path d="M1584.7,607.2c125.5,19.3,250.9,38.6,369,70.4C1832.8,660.9,1709.4,630.6,1584.7,607.2z"/>
		<path d="M216,517.1c-2.3-1.3-4.1-2.4-6-3.5c-0.4,0.4-0.8,0.8-1.2,1.3c3,2.1,7.1,4,2.1,8.1c-0.6-1.4-1.2-2.5-1.7-3.6
			c-0.3,0-0.6,0-0.9,0c-0.3,2.6-0.6,5.3-0.9,7.9c-3.6-3.4-3.9-3.3-11,4.8c-4.2-2.8-8.3-2.7-11.8,2.3c-4.7-5-10.2-4.6-16.1-3.7
			c-6.8,1-12.7-2.2-16.8-7.2c-5.7-6.9-11.7-7.6-20.1-5.1c-5.7,1.7-12.4,0.1-18.6-0.3c-1.2-0.1-2.3-1.8-3.5-2.7
			c1.4-0.7,2.7-2,4.1-2.1c10.8-0.6,21.6-0.9,32.4-1.3c21.3-0.7,42.6-1.5,63.9-2.2C215.9,509.5,216.4,510.1,216,517.1z"/>
		<path d="M847.4,656.7c-7.6,3.7-14.3,0-21.1-2.5c-2.2-0.8-4.6-0.9-7-1.4c-0.2,0.8-0.4,1.5-0.5,2.3c2.9,0.9,5.9,1.9,8.8,2.8
			c-0.1,0.4-0.2,0.8-0.3,1.3c-2.9-0.7-6-1-8.7-2.2c-2.1-0.9-4-2.5-5.5-4.2c-6.6-7.4-14.3-12.8-24.4-14.7c28.1,1.3,56.1,2.7,84.2,4
			c0,0.5,0,1,0.1,1.4c-1.8,0.2-3.6,0.4-6.6,0.8c2.1,1.6,3.5,2.6,5.6,4.1c-5.2,1.8-13.7-2.9-13.7,6.9c-6.2,1.2-6.7,0.7-7.6-6.4
			c-1.4,3.1-2.5,5.6-3.5,8L847.4,656.7z"/>
		<path d="M750.6,659.4c-7.9,3.1-13.5,0.3-17.3-6.5c-2.3-4-6.4-7-10.6-10c1.7,0.4,3.3,1.2,5,1.2c1.1,0,2.3-0.9,3.5-1.3
			c-1-0.4-1.9-0.9-2.9-1.3c-0.9-0.3-1.9-0.6-3.9-1.2c2.1-1.3,3.2-1.9,4.9-2.9c-4.3-0.5-7.9-1.6-11.3-1.1c-3,0.4-2.8,1.2-4-1.1
			c-0.4-0.9-1-1.7-2.1-3.5c18.3,1.9,35.8,3.7,52.8,5.5c-5.8,5.9-11.7,11.9-17.9,18.2C748.3,656.9,749.4,658.1,750.6,659.4z"/>
		<path d="M451.9,581.6c20.9,2.1,41.8,4.1,63.8,6.3c-6.2,1.7-11.2,3.2-16.3,4.4c-1,0.2-2.4-1.1-4.4-2c-0.4,2-0.8,4.2-1.1,5.9
			c-1.4-0.8-3-1.7-4.7-2.7c0.3,1.4,0.6,2.8,0.8,3.9c-5.2,1.8-10.9,3.8-17.1,6c-7-6.3-14.6-13.1-22.2-20
			C451.1,582.9,451.5,582.2,451.9,581.6z"/>
		<path d="M1481,82.1c-57.3-7.8-114.6-15.7-172-23.5C1366.6,64.5,1424.8,65.1,1481,82.1z"/>
		<path d="M1472.8,68.6c44.6,7,89.5,11.8,132.5,26.2c-0.1,0.6-0.2,1.2-0.3,1.8c-2.6-0.3-5.1-0.6-7.7-1c-2.6-0.4-5.3-0.6-7.9-1.1
			C1550.6,85.9,1511.7,77.3,1472.8,68.6z"/>
		<path d="M398.1,575.6c13.8,1.7,27.7,3.4,41.5,5.1c0.2,0.4,0.5,0.9,0.7,1.3c-4.6,3.2-8.8,7.3-13.8,9.5c-7.2,3.2-14.3-0.3-18.3-7.7
			c-1.7-3.2-3.2-5.8-7.6-4.4c-0.8,0.3-2.2-1.1-3.3-1.7C397.6,577.1,397.9,576.3,398.1,575.6z"/>
		<path d="M691.2,642c-2.4-1.7-4.8-3.4-7.1-5c-0.2,0.3-0.5,0.5-0.7,0.8c1.3,1.2,2.7,2.4,4.1,3.7c-2.5,3.8-5.5,4.2-8.3,1.4
			c-2-2-3.7-4.8-4.6-7.5c-1.1-3.3,0.6-5.6,4.3-5.5c9.3,0.3,18.6,0.8,28.6,1.2c-0.8,3-1.5,5.7-2,7.8c-3.7,0.3-7,0.6-10.7,0.9
			c-0.7-0.8-1.8-2.2-3-3.6c-0.3,0.2-0.6,0.4-0.9,0.5c0.5,1.4,1.1,2.8,1.6,4.2C692,641.3,691.6,641.7,691.2,642z"/>
		<path d="M847.2,656.9c2.8,0,5.7,0,8.5,0c0,0.9,0.1,1.8,0.1,2.7c-3,0.2-6,0.4-9,0.6c0.2-1.2,0.3-2.3,0.5-3.5
			C847.4,656.7,847.2,656.9,847.2,656.9z"/>
		<path class="st0" d="M673,372c8.8-2.1,17.6-4.2,26.4-6.3c98.8-24.6,198-47.6,298.1-66.3c60.7-11.4,121.5-21.8,182.5-31.4
			c51.8-8.2,103.8-14.9,155.8-21.7c27.9-3.7,55.8-6.8,83.8-9.3c60-5.5,120.1-11,180.2-15.6c57.5-4.4,115.2-5.4,172.8-5.2
			c8.6,0,17.2,0,25.8,0.9c-3.8,0.3-7.5,0.7-11.3,0.8c-34.3,1.1-68.7,1.5-102.9,3.3c-37.4,1.9-74.8,4.7-112.2,7.7
			c-35,2.7-70,5.9-105,9.4c-32.5,3.2-64.9,7-97.3,10.9c-32.2,3.8-64.4,7.7-96.6,12.1c-36.9,5.1-73.8,10.4-110.6,16.6
			c-57.1,9.6-114.2,19.2-171.1,30.3c-60.6,11.8-120.9,25-181.1,38.4c-38,8.4-75.7,17.9-113.5,27.4c-127,31.9-252.7,67.9-376.7,110
			c-17.2,5.8-34.3,11.9-51.4,17.8c-1.5,0.5-3.1,0.9-4.6,1.3c-0.2-0.5-0.4-1-0.5-1.5c60.9-22.9,121.9-45.7,182.8-68.6
			c-0.1-0.3-0.2-0.6-0.3-0.9c-19,5.8-38,11.5-57,17.3c-0.1-0.4-0.3-0.9-0.4-1.3c27.1-9.2,54.1-18.4,81.2-27.6
			c-0.1-0.4-0.3-0.9-0.4-1.3c-18.5,5.9-36.9,11.8-55.9,17.8c0.2-1.2,0.2-1.6,0.3-1.6c38.2-16.4,76.3-33.1,114.6-49.2
			c38.6-16.3,77.5-32,116.2-48c118.5-48.8,240.6-86.5,365.3-116.1c68.2-16.2,136.8-30.2,206.1-40.4c45.9-6.8,92.1-12.4,138.2-17.4
			c78.9-8.5,158.1-11.8,237.5-12.1c36.9-0.1,73.5,1.8,110,7.1c5.7,0.8,11.2,2.8,16.8,4.3c0,0.8-0.1,1.6-0.1,2.3
			c-4.7,1.1-9.4,2.7-14.2,3.3c-26.7,3.5-53.5,7.1-80.3,10c-22.8,2.5-45.8,4.3-68.7,6c-21.4,1.6-42.8,2.7-64.2,4.1
			c-14.6,1-29.1,2.2-43.6,4.2c55.7-2.1,111.4-4.3,167.1-6.4c0,0.3,0,0.6,0.1,1c-26.8,2-53.5,4-80.3,5.9c0,0.6,0,1.1,0,1.7
			c51.9,0,103.8,0,155.7,0c0,0.5,0,0.9,0,1.4c-7.4,0.3-14.9,0.6-22.3,1c-54.2,3.1-108.5,5.2-162.6,9.7
			c-56.5,4.6-113,10.3-169.3,17.7c-75.1,9.9-150,21.1-224.7,33.3c-82.3,13.4-163.1,34-243.2,57.1c-61.5,17.7-123.2,35-184.8,52.5
			c-3.5,1-6.9,2.2-10.3,3.3C672.9,371.4,672.9,371.7,673,372z"/>
		<path class="st0" d="M287.4,463.1c1.5-1,2.9-2.2,4.5-2.9c52.5-24.7,105.4-48.6,159.9-69.1C550.7,354,648.1,313.2,745,271.2
			c64.7-28,131.8-49.1,200.1-66.4c63-15.9,126.5-28.9,190.8-38c63.9-9.1,128-17.4,192.1-25c56.7-6.8,113.5-12.5,170.4-18
			c45.4-4.4,90.9-7.9,136.4-11.7c2.1-0.2,4.4,0,6.4,0.5c15,3.9,27.1,12.9,40.2,23c-7.6,0.4-13.8,1-20,1.1
			c-20.3,0.4-40.6,0.8-60.9,0.9c-2.2,0-4.5-1.8-6.7-2.8c-4.3-2-8.4-5.2-12.9-5.7c-11-1.1-21.9-0.2-31.7,6.3c-2.1,1.4-5,1.8-7.6,2
			c-27.6,1.9-55.2,3.3-82.8,5.6c-30,2.5-60.1,5.3-90,8.6c-29.9,3.3-59.9,6.7-89.7,11.3c-46.6,7.1-93.1,14.5-139.4,22.8
			c-74.2,13.3-147.5,30.6-220.4,49.8c-79.4,21-157.2,46.7-233.5,76.9c-48.4,19.2-96.3,39.7-144.3,59.7
			c-70.9,29.7-141.7,59.5-215.3,82.1c-11.3,3.5-22.7,6.6-34,9.9c-1.4,0.4-2.9,0.4-4.4,0.6C287.8,464.1,287.6,463.6,287.4,463.1z"/>
		<path class="st0" d="M733.3,266.1c-97.9,44.4-197.1,82.7-296.9,120.3c16.2-17,32-34.1,48.4-50.6c16.4-16.6,33.1-32.9,50.2-48.7
			c17.2-16,35-31.2,51.9-47.7c-22.5,17.7-44.9,35.4-68.3,53.8c8.1-24.6,15.2-48.3,37-63.8c24-17.1,49.2-31.8,76.3-43.1
			c1.9-0.8,5.3-0.6,6.6,0.6c9.8,9.1,18.2,7.2,29.2,0.4c58.3-35.8,121.1-61.1,188.3-74.7c28.8-5.8,58-9.6,87.2-12.8
			c25.4-2.8,51.1-4.6,76.6-5c28.4-0.5,56.9,0.7,85.3,1.8c17.1,0.7,34.2,2.4,51.2,4c7.3,0.7,14.5,2.6,21.7,4
			c-0.1,0.6-0.2,1.2-0.2,1.8c-3.1-0.2-6.2-0.3-9.3-0.7c-33.9-4.4-68-5-102.1-5.1c-21.9-0.1-43.9-0.3-65.8,0.6
			c-22.4,0.9-44.7,2.9-67,4.7c-54.9,4.5-108.1,16.8-159.6,35.9c-51.8,19.2-102,42-146.5,75.2c-26.5,19.8-52.1,41-76.2,63.6
			c-30.8,28.7-59.7,59.4-89.4,89.3c-0.6,0.6-1.1,1.2-1.2,2.7c33.4-13,66.8-25.9,100.1-38.9c-0.1-0.4-0.2-0.7-0.3-1.1
			c-10.9,2.7-21.8,5.5-33.3,8.3c0.8-11.4,2.6-22.4,8.9-31.5c6.8-9.8,14.4-19.2,23.1-27.3c23.8-22.1,49.5-41.9,76.2-60.5
			c4.8-3.3,8.4-3.5,13.5-0.7c26.5,14.3,53.1,28.3,79.7,42.4C729.9,264,731.1,264.8,733.3,266.1z M642.4,221.8
			c-6.9,4.5-38.4,77.1-40.9,94.2c1.5-0.5,2.9-0.9,4.2-1.5c19.2-9.2,38.5-18.3,57.6-27.6c8.9-4.3,9.7-5.7,5.5-14.5
			c-8.2-16.9-17-33.4-25.6-50.1C643,222.1,642.8,222.1,642.4,221.8z"/>
		<path class="st0" d="M929.3,197.3c-12.3-8.8-24.4-17.2-36.4-25.9c-13.9-10.1-27.7-20.3-41.3-30.7c-2.9-2.2-4.7-5.7-7-8.6
			c3.2-1.9,6.2-4.3,9.6-5.4c6.4-2.2,13.1-3.8,19.7-5.5c4.7-1.2,8.5,0.2,11.9,4.1c19.4,21.8,39,43.3,58.5,65c2.5,2.7,4.9,3.9,8.7,2.8
			c6.6-1.9,13.4-3.1,20.3-3.7c-16.1,4-32.3,7.8-48.3,12c-58.8,15.4-116.3,34.8-172.9,56.7c-3.6,1.4-6.4,1.1-9.8-0.7
			c-27.9-14.9-55.9-29.6-83.8-44.3c-1.4-0.8-2.8-1.5-4.9-2.7c43.2-26.5,87.8-48,135.6-65.3c-2.9,11.9,5.8,18.1,10.9,25.7
			c11.1,16.4,22.7,32.5,33.9,48.9c2,3,4.2,3.9,7.5,3c28.8-8.1,57.7-16.1,86.5-24.2C928.3,198.4,928.5,198,929.3,197.3z"/>
		<path class="st0" d="M326.4,524c11.3,0,22.6,0.4,33.9-0.1c53-2,105.9-3.6,158.8-6.4c66.7-3.5,133.4-7.4,200.1-12
			c49.5-3.4,98.8-8.5,148.3-12c11.1-0.8,22.5,1.5,33.7,2.9c29.4,3.8,58.8,8.6,88.5,7.1c20.4-1,40.8-3.8,61.1-6.3
			c33.7-4,67.4-8.2,101.1-12.5c32-4.1,64.1-8.3,96.1-12.6c37-5,73.9-10.2,110.8-15.3c7.4-1,14.7-2.1,22.2-2.2
			c-23.7,4.4-47.3,9-71.1,13.2c-38.2,6.7-76.4,13.5-114.7,19.4c-38.8,6-77.7,11.5-116.7,16.5c-31.7,4.1-63.5,7.7-95.3,10.6
			c-33.8,3.1-67.7,5.7-101.7,7.5c-46.3,2.4-92.5,4.4-138.8,5.7c-103.4,2.9-206.9,2.3-310.4,0.4c-35.3-0.7-70.6-1.5-105.9-2.3
			C326.4,525.1,326.4,524.5,326.4,524z"/>
		<path class="st0" d="M1507,389.9c-13.2,1.7-26.4,3.3-39.5,5c-34.5,4.5-69,9-103.5,13.6c-35.6,4.7-71.3,9.5-106.9,14.4
			c-34.3,4.7-68.6,9.5-102.8,14.4c-36.1,5.1-72.1,10.5-108.2,15.6c-37.6,5.3-75.1,10.6-112.8,15.6c-33.5,4.4-67.1,8.4-100.6,12.4
			c-22.6,2.7-45.3,5.4-67.9,7.7c-26.3,2.7-52.7,5.1-79.1,7.3c-32,2.7-64.1,5.3-96.1,7.5c-30.6,2.1-61.2,3.6-91.8,5.5
			c-40.9,2.5-81.8,5.1-122.7,7.6c-19.8,1.2-39.6,2.3-59.4,3.4c-2.5,0.1-4.9,0-7.4-0.8c6.6-0.4,13.1-0.6,19.7-1.1
			c28.6-2.2,57.1-4.2,85.6-6.7c30.4-2.6,60.7-5.6,91-8.5c35.8-3.4,71.6-6.9,107.4-10.5c33.3-3.4,66.6-6.7,99.8-10.5
			c35.4-4,70.7-8.5,106.1-12.8c29.1-3.6,58.1-7.3,87.2-11c33-4.2,66.1-8.3,99.1-12.4c34-4.2,68.1-8.5,102.1-12.6
			c34.9-4.3,69.7-8.5,104.6-12.6c33.9-3.9,67.8-7.7,101.8-11.4c36.6-4,73.2-7.9,109.8-11.6c25.7-2.6,51.4-4.9,77.1-7.4
			c2.4-0.2,4.9-0.6,7.3-0.9C1506.9,389.2,1506.9,389.5,1507,389.9z"/>
		<path class="st0" d="M868.6,426.2c-1.6,1-3.1,2.1-4.8,3c-30.4,15-62.4,19.1-95.7,13.4c-4.6-0.8-9.1-3.8-12.9-6.8
			c-4.7-3.7-4.1-9.4,1.1-13.6c9.3-7.4,20-11.9,31.4-14.7c24.5-5.9,49.1-6.6,73.3,1.4c3,1,5.9,2.4,8.4,4.3c1.1,0.9,1.9,4.1,1.3,5
			c-1,1.3-3.9,2.3-5.3,1.7c-20.5-8.6-41.8-6.8-63-4.6c-15.3,1.6-30.1,5.6-44.2,11.5c-1.5,0.6-2.9,1.6-4.1,3.2
			c18.3-8.1,37.5-11.6,57.1-12.7c19.5-1.2,38.9-0.8,57.1,7.2C868.5,425,868.5,425.6,868.6,426.2z"/>
		<path class="st0" d="M1770.3,141.4c-9.4-1-18.6-2.1-27.8-2.9c-10.9-1-21.9-2-32.9-2.5c-6.1-0.3-11.1-2.2-16-5.8
			c-8-5.9-16.6-11-24.9-16.4c-1.5-0.9-3-1.7-4.3-3.7c5.7,0,11.4-0.3,17.1,0.1c21.9,1.4,43.7,3.1,65.6,4.7c1.3,0.1,2.7,0.4,3.8,1.1
			C1755.5,118.6,1768.4,135.6,1770.3,141.4z"/>
		<path class="st0" d="M504.6,476.1c26.1-10.2,52.6-8,79.3-3.8c0.1,0.5,0.3,1.1,0.4,1.6c-5.5,2-10.8,4.6-16.5,5.9
			c-16.7,4.1-33.7,6.4-51,3.9c-3.3-0.5-6.7-1-9.6-2.3c-2.1-1-4.9-3.5-4.9-5.3c0-2.2,2.3-5.5,4.3-6.3c10.6-3.7,21.3-8.2,32.3-9.5
			c11.2-1.3,22.8,0.4,34.2,1.7c4.2,0.5,8.2,3.3,12.1,5.5C557.7,466.3,530.5,463.9,504.6,476.1z"/>
		<path class="st0" d="M1086.2,107c10.8,1,21.7,2,32.5,3.2c1.4,0.1,2.7,1.2,3.9,2c17.4,12,34.8,24,52.1,36c0.6,0.4,1.2,1,2.5,2.1
			c-8.8,1.2-16.9,1.7-24-2.2c-22.8-12.6-45.2-25.8-67.8-38.8C1085.8,108.5,1086,107.8,1086.2,107z"/>
		<path class="st0" d="M1809.3,147.4c-7.1-1.2-13.9-2.3-20.6-3.6c-1-0.2-1.9-1.2-2.5-2.1c-5.3-8.2-10.5-16.4-15.6-24.2
			C1786.1,117,1805,131.1,1809.3,147.4z"/>
		<path class="st0" d="M530.3,230.8c4.7-13.5,51.6-47.4,63.3-45C568.8,196.8,549.1,213.2,530.3,230.8z"/>
		<path class="st0" d="M628.1,180.7c-24.4,12.1-49.5,24.5-72.2,35.8C564.8,206.7,620.2,178.9,628.1,180.7z"/>
		<path class="st0" d="M490.8,304.6c-1.6-10,4.7-19.5,12.7-19.6C499.1,291.8,494.9,298.2,490.8,304.6z"/>
		<path class="st0" d="M501.7,297.9c2.9-7.1,5.8-14.1,8.7-21.2c0.8,8.5-2,15.7-7.3,21.8C502.6,298.3,502.1,298.1,501.7,297.9z"/>
		<path class="st0" d="M1551.4,141.2c2-2.3,4-4.7,6.4-7.5c2.2,3.1,3.7,5.3,5.6,8.1c-4,0.3-7.5,0.6-11,0.8
			C1552.1,142.2,1551.7,141.7,1551.4,141.2z"/>
		<path class="st0" d="M1587.1,138.3c-3.7,0-6.6,0-10.6,0c0.9-1.7,1.3-3.9,2.3-4.2C1582,133.1,1585,134,1587.1,138.3z"/>
		<path d="M642.4,221.8c0.4,0.3,0.6,0.4,0.7,0.5c8.6,16.7,17.4,33.2,25.6,50.1c4.3,8.8,3.4,10.2-5.5,14.5
			c-19.1,9.3-38.4,18.4-57.6,27.6c-1.3,0.6-2.6,1-4.2,1.5C604,298.8,635.5,226.3,642.4,221.8z"/>
	</g>
</g>
</svg>
