<?xml version="1.0" encoding="utf-8"?>
<!-- Generator: Adobe Illustrator 27.0.0, SVG Export Plug-In . SVG Version: 6.00 Build 0)  -->
<svg version="1.1" id="Layer_1" xmlns="http://www.w3.org/2000/svg" xmlns:xlink="http://www.w3.org/1999/xlink" x="0px" y="0px"
	 viewBox="0 0 1464.9 278.4" style="enable-background:new 0 0 1464.9 278.4;" xml:space="preserve">
<g>
	<g>
		<g>
			<path d="M128.4,268.8c3.6-2,5.3-5.2,5.4-9.1c0.1-7.6,0-15.3-0.1-22.9c0-4.2-0.1-8.4-0.1-12.6c0-2.6,0-5.1,0-7.7
				c0-1.2,0.1-2.5,1.4-3.2c1-0.5,2.1-0.3,3,0.3c1.8,1.2,3.5,2.5,5.2,3.7c9.5,6.3,19.6,11.3,30.9,13.4c15.6,2.9,29.7-0.4,42.5-9.6
				c7.7-5.5,14-12.2,18.8-20.3c2.4-4.1,3.6-8.7,5-13.2c2-6.7,3.5-13.4,3.9-20.4c0-0.1,0.1-0.3,0.2-0.4v-9.3
				c-0.1-0.2-0.2-0.5-0.2-0.7c-0.5-7.3-1.9-14.3-4.5-21.2c-4.8-12.7-10.8-24.6-19.3-35.2c-6.4-8.1-13.7-15.5-20.9-22.9
				c-9.2-9.5-19.2-18.1-29.1-26.8c-11.3-9.9-22.6-20-33.9-30c-1.2-1.1-2-2.5-2.3-4.1c-0.3-1.7-0.8-3.2-1.7-4.6
				c-0.9-1.5-2.5-2.4-4.3-2.4l0,0c-1.7,0-3.4,0.9-4.3,2.4c-0.9,1.4-1.4,2.9-1.7,4.6c-0.3,1.6-1.1,3.1-2.3,4.1
				c-11.3,10-22.6,20-33.9,30c-9.8,8.7-19.8,17.3-29,26.8c-7.2,7.4-14.5,14.8-20.9,22.9c-8.5,10.6-14.5,22.5-19.3,35.2
				c-2.6,6.9-4,13.9-4.5,21.2c0,0.2-0.1,0.5-0.2,0.7v9.3c0.1,0.1,0.2,0.2,0.2,0.4c0.4,7,1.9,13.8,3.9,20.4c1.4,4.5,2.6,9.1,5,13.2
				c4.8,8.1,11.1,14.8,18.8,20.3c12.8,9.2,26.9,12.5,42.5,9.6c11.3-2.1,21.4-7.1,30.9-13.4c1.7-1.2,3.4-2.4,5.2-3.6
				c0.9-0.6,2.1-0.8,3.1-0.3c1.3,0.7,1.4,1.9,1.4,3.1c0,2.6,0,5.1,0,7.7c0,4.2-0.1,8.4-0.1,12.6c0,7.6-0.1,15.3-0.1,22.9
				C123,263.7,124.7,266.9,128.4,268.8C128.2,268.8,128.3,268.9,128.4,268.8z M122.3,124.8c0,0.5-0.2,1.2-0.5,1.3
				c-0.3,0.2-1-0.1-1.4-0.4c-1-0.8-2-1.6-2.8-2.6c-6.9-7.7-13.8-15.5-20.7-23.3c-0.6-0.6-1.2-1.3-1.9-1.8c-2.2-1.8-4.9-1.4-7.3-1
				c-3.4,0.6-4.6,3.2-2.8,6.2c0.8,1.4,1.7,2.8,2.7,4c4.4,5.2,8.8,10.5,13.3,15.6c6.2,7.1,12.6,14.1,18.9,21.1c1,1.1,1.3,2.2,1.3,3.6
				c0,10.9,0,21.8,0,32.6c0,0.3,0,0.5,0,0.8c-0.1,1.1-0.6,1.3-1.5,0.6c-0.6-0.5-1.2-1-1.8-1.6c-9.3-9.6-18.3-19.5-27.2-29.6
				c-7.4-8.4-14.7-16.7-22.1-25c-0.5-0.6-1.2-1.2-2-1.4c-2.7-0.6-5.5-0.3-8,0.9c-1.5,0.7-2.1,1.8-1.9,3.5c0.3,2.8,1.3,5.3,3.3,7.3
				c3,3,5.9,6.1,8.8,9.2c1.8,1.9,3.4,4,5.1,6c10.1,11.2,20.3,22.3,30.4,33.5c3.3,3.7,6.6,7.3,9.9,10.9c2.7,3,2.6,5.5-0.4,8.1
				c-1.7,1.5-3.4,3.1-5.4,4.3c-5.5,3.5-11.2,6.6-17.2,9.1c-6.1,2.4-12.3,4.3-18.9,4.1c-7.2-0.2-14.1-1.8-20.6-4.9
				c-6.6-3.2-12-8.2-16.6-13.9c-11.9-14.7-15.6-31.7-12.7-50.2c2-12.7,8.1-23.7,14.2-34.8c5.5-7,10.6-14.3,16.5-20.9
				c6.7-7.4,14-14.2,21.2-21.1c13.9-13.2,28.7-25.3,43.5-37.3c0.7-0.5,1.5-0.9,2.3-1.2c1.1-0.4,1.8,0,2.1,1.1
				c0.1,0.4,0.1,0.9,0.1,1.3c0,2.5-0.1,5-0.1,7.4c0,11.7,0,23.4,0,35.1h0.1c0,10.8,0,21.5,0,32.3
				C122.3,117.7,122.3,121.2,122.3,124.8z M221.5,202.3c-4.6,5.7-9.9,10.7-16.6,13.9c-6.5,3.1-13.4,4.7-20.6,4.9
				c-6.6,0.2-12.8-1.7-18.9-4.1c-6.1-2.4-11.7-5.6-17.2-9.1c-1.9-1.2-3.7-2.8-5.4-4.3c-3-2.7-3.1-5.1-0.4-8.1
				c3.3-3.7,6.6-7.3,9.9-10.9c10.1-11.2,20.3-22.3,30.4-33.5c1.8-1.9,3.4-4.1,5.1-6c2.9-3.1,5.8-6.2,8.8-9.2c2-2.1,3-4.5,3.3-7.3
				c0.2-1.6-0.5-2.8-1.9-3.5c-2.6-1.2-5.3-1.5-8-0.9c-0.7,0.2-1.4,0.8-2,1.4c-7.4,8.3-14.7,16.7-22.1,25
				c-8.9,10-17.9,19.9-27.2,29.6c-0.6,0.6-1.1,1.1-1.8,1.6c-0.9,0.7-1.4,0.4-1.5-0.6c0-0.3,0-0.5,0-0.8c0-10.9,0-21.8,0-32.6
				c0-1.4,0.3-2.5,1.3-3.6c6.3-7,12.6-14,18.9-21.1c4.5-5.1,8.9-10.4,13.3-15.6c1-1.2,1.9-2.6,2.7-4c1.7-3.1,0.6-5.6-2.8-6.2
				c-2.5-0.4-5.1-0.9-7.3,1c-0.7,0.5-1.3,1.1-1.9,1.8c-6.9,7.7-13.8,15.5-20.7,23.3c-0.8,0.9-1.8,1.8-2.8,2.6
				c-0.4,0.3-1.1,0.5-1.4,0.4c-0.3-0.2-0.5-0.9-0.5-1.3c0-3.5,0-7.1,0-10.6c0-10.8,0-21.5,0-32.3h0.1c0-11.7,0-23.4,0-35.1
				c0-2.5-0.1-5-0.1-7.4c0-0.5,0-0.9,0.1-1.3c0.3-1.2,1-1.6,2.1-1.1c0.8,0.3,1.6,0.7,2.3,1.2c14.8,12.1,29.6,24.1,43.5,37.3
				c7.2,6.9,14.5,13.7,21.2,21.1c5.9,6.6,11,13.9,16.5,20.9c6.1,11,12.2,22.1,14.2,34.8C237.1,170.6,233.4,187.6,221.5,202.3z"/>
		</g>
	</g>
</g>
<g>
	<path d="M311.6,202.6L281.9,85.4h16l13.9,59.3c3.5,14.6,6.6,29.2,8.7,40.5h0.3c1.9-11.6,5.6-25.6,9.6-40.7L346,85.4h15.8l14.3,59.5
		c3.3,13.9,6.4,27.8,8.2,40.2h0.3c2.4-12.9,5.7-25.9,9.4-40.5l15.5-59.1H425l-33.2,117.2H376l-14.8-61c-3.7-15-6.1-26.4-7.6-38.2
		h-0.3c-2.1,11.6-4.7,23.1-9,38.2l-16.7,61L311.6,202.6L311.6,202.6z"/>
	<path d="M500.2,147.6h-45.6v42.2h50.8v12.7h-65.9V85.4h63.3v12.7h-48.2v37h45.6L500.2,147.6L500.2,147.6z"/>
	<path d="M525.1,85.4h15.1v104.5h50.1v12.7h-65.2L525.1,85.4L525.1,85.4z"/>
	<path d="M607.1,85.4h15.1v104.5h50.1v12.7h-65.2L607.1,85.4L607.1,85.4z"/>
	<path d="M745,165.7l-12.2,36.9h-15.6L757,85.4h18.3l40,117.2h-16.2l-12.5-36.9L745,165.7L745,165.7z M783.4,153.9L772,120.2
		c-2.6-7.6-4.3-14.6-6.1-21.4h-0.3c-1.7,7-3.7,14.1-5.9,21.2l-11.5,33.9H783.4z"/>
	<path d="M832.5,85.4h15.1v104.5h50.1v12.7h-65.2L832.5,85.4L832.5,85.4z"/>
	<path d="M929.6,85.4v117.2h-15.1V85.4H929.6z"/>
	<path d="M1054.8,151.1c-0.9-16.3-1.9-36-1.7-50.6h-0.5c-4,13.7-8.9,28.3-14.8,44.5l-20.7,56.9h-11.5l-19-55.8
		c-5.6-16.5-10.3-31.6-13.6-45.6h-0.3c-0.3,14.6-1.2,34.3-2.3,51.8l-3.1,50.2h-14.4l8.2-117.2h19.3l20,56.7
		c4.9,14.4,8.9,27.3,11.8,39.5h0.5c3-11.8,7.1-24.7,12.3-39.5l20.9-56.7h19.3l7.3,117.2h-14.8L1054.8,151.1z"/>
	<path d="M1156.5,147.6H1111v42.2h50.8v12.7h-65.9V85.4h63.3v12.7H1111v37h45.6L1156.5,147.6L1156.5,147.6z"/>
	<path d="M1181.4,202.6V85.4h16.5l37.6,59.3c8.7,13.7,15.5,26.1,21,38.1l0.3-0.2c-1.4-15.6-1.7-29.9-1.7-48.2v-49h14.3v117.2h-15.3
		l-37.2-59.5c-8.2-13-16-26.4-21.9-39.1l-0.5,0.2c0.9,14.8,1.2,28.9,1.2,48.3v50.1L1181.4,202.6L1181.4,202.6z"/>
	<path d="M1318,98.2h-35.6V85.4h86.8v12.9h-35.8v104.3H1318V98.2z"/>
	<path d="M1379.1,184.1c6.8,4.2,16.7,7.6,27.1,7.6c15.5,0,24.5-8.2,24.5-20c0-11-6.3-17.2-22.1-23.3c-19.1-6.8-30.9-16.7-30.9-33.2
		c0-18.3,15.1-31.8,37.9-31.8c12,0,20.7,2.8,25.9,5.7l-4.2,12.3c-3.8-2.1-11.6-5.6-22.3-5.6c-16,0-22.1,9.6-22.1,17.6
		c0,11,7.1,16.3,23.3,22.6c19.8,7.6,29.9,17.2,29.9,34.4c0,18.1-13.4,33.7-41,33.7c-11.3,0-23.6-3.3-29.9-7.5L1379.1,184.1z"/>
</g>
</svg>
